<?xml version="1.0" encoding="UTF-8" standalone="no"?>
<!-- Created with Inkscape (http://www.inkscape.org/) -->

<svg
   xmlns:dc="http://purl.org/dc/elements/1.1/"
   xmlns:cc="http://creativecommons.org/ns#"
   xmlns:rdf="http://www.w3.org/1999/02/22-rdf-syntax-ns#"
   xmlns:svg="http://www.w3.org/2000/svg"
   xmlns="http://www.w3.org/2000/svg"
   xmlns:sodipodi="http://sodipodi.sourceforge.net/DTD/sodipodi-0.dtd"
   xmlns:inkscape="http://www.inkscape.org/namespaces/inkscape"
   width="210mm"
   height="297mm"
   viewBox="0 0 744.09448819 1052.3622047"
   id="svg4145"
   version="1.1"
   inkscape:version="0.91 r13725"
   sodipodi:docname="icones.svg">
  <defs
     id="defs4147" />
  <sodipodi:namedview
     id="base"
     pagecolor="#ffffff"
     bordercolor="#666666"
     borderopacity="1.0"
     inkscape:pageopacity="0.0"
     inkscape:pageshadow="2"
     inkscape:zoom="0.7"
     inkscape:cx="99.07169"
     inkscape:cy="311.61943"
     inkscape:document-units="px"
     inkscape:current-layer="layer1"
     showgrid="false"
     inkscape:window-width="1190"
     inkscape:window-height="806"
     inkscape:window-x="719"
     inkscape:window-y="103"
     inkscape:window-maximized="0" />
  <metadata
     id="metadata4150">
    <rdf:RDF>
      <cc:Work
         rdf:about="">
        <dc:format>image/svg+xml</dc:format>
        <dc:type
           rdf:resource="http://purl.org/dc/dcmitype/StillImage" />
        <dc:title />
      </cc:Work>
    </rdf:RDF>
  </metadata>
  <g
     inkscape:label="Calque 1"
     inkscape:groupmode="layer"
     id="layer1">
    <path
       sodipodi:nodetypes="cczccccccsccccc"
       inkscape:connector-curvature="0"
       id="path5990"
       d="m 40.397157,472.32484 c 0.133901,3.54381 2.547679,7.70326 2.105463,16.44368 6.743599,-3.50015 10.950859,-14.58492 46.732467,-15.53115 35.781603,-0.94621 52.208603,15.74469 52.208603,15.74469 -0.36253,-7.97681 0.75531,-12.5784 2.83048,-19.63287 l 15.1545,-0.3213 0,100.15595 -15.47693,0.0877 c -1.89563,-4.90903 -3.05101,-10.43261 -2.34636,-15.74168 0,0 -27.33795,14.98342 -52.606348,14.31056 C 66.401134,567.23868 41.49397,554.1663 41.49397,554.1663 c -0.828396,5.63838 -1.109807,10.39066 -0.789524,15.45471 l -14.914662,0.1913 c -11.380999,-22.60492 -11.154994,-81.139 0.999088,-97.69988 z"
       style="color:#000000;font-style:normal;font-variant:normal;font-weight:normal;font-stretch:normal;font-size:medium;line-height:normal;font-family:Sans;-inkscape-font-specification:Sans;text-indent:0;text-align:start;text-decoration:none;text-decoration-line:none;letter-spacing:normal;word-spacing:normal;text-transform:none;direction:ltr;block-progression:tb;writing-mode:lr-tb;baseline-shift:baseline;text-anchor:start;display:inline;overflow:visible;visibility:visible;fill:#93a7ac;fill-opacity:1;stroke:#000000;stroke-width:2.48713994;stroke-linejoin:round;stroke-miterlimit:4;stroke-dasharray:none;marker:none;enable-background:accumulate" />
    <path
       style="fill:none;stroke:#cccccc;stroke-width:3.43053794;stroke-linecap:round;stroke-linejoin:miter;stroke-miterlimit:4;stroke-dasharray:none;stroke-opacity:1"
       d="m 56.992013,490.647 c 19.308386,-8.157 46.049117,-12.1033 72.601397,2.17089"
       id="path5992"
       inkscape:connector-curvature="0"
       sodipodi:nodetypes="cc" />
    <ellipse
       ry="48.588322"
       rx="11.262442"
       cy="520.79694"
       cx="40.358425"
       id="ellipse6077"
       style="color:#000000;clip-rule:nonzero;display:inline;overflow:visible;visibility:visible;opacity:1;isolation:auto;mix-blend-mode:normal;color-interpolation:sRGB;color-interpolation-filters:linearRGB;solid-color:#000000;solid-opacity:1;fill:#93a7ac;fill-opacity:1;fill-rule:nonzero;stroke:#000000;stroke-width:2.48713994;stroke-linecap:butt;stroke-linejoin:round;stroke-miterlimit:4;stroke-dasharray:none;stroke-dashoffset:0;stroke-opacity:1;marker:none;color-rendering:auto;image-rendering:auto;shape-rendering:auto;text-rendering:auto;enable-background:accumulate" />
    <path
       style="color:#000000;font-style:normal;font-variant:normal;font-weight:normal;font-stretch:normal;font-size:medium;line-height:normal;font-family:Sans;-inkscape-font-specification:Sans;text-indent:0;text-align:start;text-decoration:none;text-decoration-line:none;letter-spacing:normal;word-spacing:normal;text-transform:none;direction:ltr;block-progression:tb;writing-mode:lr-tb;baseline-shift:baseline;text-anchor:start;display:inline;overflow:visible;visibility:visible;fill:#93a7ac;fill-opacity:1;stroke:#000000;stroke-width:2.48713994;stroke-linejoin:round;stroke-miterlimit:4;stroke-dasharray:none;marker:none;enable-background:accumulate"
       d="m 42.50262,488.76852 c 6.743599,-3.50015 10.950859,-14.58492 46.732467,-15.53115 35.781603,-0.94621 50.909083,14.012 50.909083,14.012 0.93699,-8.62656 2.05483,-10.84571 4.13,-17.90018 l 15.1545,-0.3213 0,100.15595 -15.47693,0.0877 c -1.89563,-4.90903 -3.05101,-10.43261 -2.34636,-15.74168 0,0 -27.33795,14.98342 -52.606348,14.31056 C 66.401134,567.23868 41.49397,554.1663 41.49397,554.1663 c -6.139512,-8.36595 -8.118911,-55.66466 1.00865,-65.39774 z"
       id="path6081"
       inkscape:connector-curvature="0"
       sodipodi:nodetypes="czccccccscc" />
    <path
       sodipodi:nodetypes="cc"
       inkscape:connector-curvature="0"
       id="path6083"
       d="m 56.992013,490.647 c 19.308386,-8.157 46.049117,-12.1033 72.601397,2.17089"
       style="fill:none;stroke:#cccccc;stroke-width:3.43053794;stroke-linecap:round;stroke-linejoin:miter;stroke-miterlimit:4;stroke-dasharray:none;stroke-opacity:1" />
    <path
       sodipodi:nodetypes="ccccczc"
       inkscape:connector-curvature="0"
       id="path6089"
       d="m 140.14417,487.24937 c 0.93699,-8.62656 2.05483,-10.84571 4.13,-17.90018 l 15.1545,-0.3213 0,100.15595 -15.47693,0.0877 c -1.89563,-4.90903 -2.43413,-8.71913 -4.29563,-21.37291 -1.8615,-12.65377 -3.90622,-35.62367 0.48806,-60.64922 z"
       style="color:#000000;font-style:normal;font-variant:normal;font-weight:normal;font-stretch:normal;font-size:medium;line-height:normal;font-family:Sans;-inkscape-font-specification:Sans;text-indent:0;text-align:start;text-decoration:none;text-decoration-line:none;letter-spacing:normal;word-spacing:normal;text-transform:none;direction:ltr;block-progression:tb;writing-mode:lr-tb;baseline-shift:baseline;text-anchor:start;display:inline;overflow:visible;visibility:visible;fill:#93a7ac;fill-opacity:1;stroke:#000000;stroke-width:2.48713994;stroke-linejoin:round;stroke-miterlimit:4;stroke-dasharray:none;marker:none;enable-background:accumulate" />
    <ellipse
       style="color:#000000;clip-rule:nonzero;display:inline;overflow:visible;visibility:visible;opacity:1;isolation:auto;mix-blend-mode:normal;color-interpolation:sRGB;color-interpolation-filters:linearRGB;solid-color:#000000;solid-opacity:1;fill:#93a7ac;fill-opacity:1;fill-rule:nonzero;stroke:#000000;stroke-width:2.4871397;stroke-linecap:butt;stroke-linejoin:round;stroke-miterlimit:4;stroke-dasharray:none;stroke-dashoffset:0;stroke-opacity:1;marker:none;color-rendering:auto;image-rendering:auto;shape-rendering:auto;text-rendering:auto;enable-background:accumulate"
       id="path6012"
       cx="159.4695"
       cy="519.11908"
       rx="10.041757"
       ry="50.04324" />
    <path
       style="color:#000000;clip-rule:nonzero;display:inline;overflow:visible;visibility:visible;opacity:1;isolation:auto;mix-blend-mode:normal;color-interpolation:sRGB;color-interpolation-filters:linearRGB;solid-color:#000000;solid-opacity:1;fill:none;fill-opacity:1;fill-rule:nonzero;stroke:#cccccc;stroke-width:3.43053794;stroke-linecap:round;stroke-linejoin:miter;stroke-miterlimit:4;stroke-dasharray:none;stroke-dashoffset:0;stroke-opacity:1;color-rendering:auto;image-rendering:auto;shape-rendering:auto;text-rendering:auto;enable-background:accumulate"
       d="m 146.09578,474.65155 c 1.08389,-0.0109 4.98393,0.0274 5.30083,0.0272"
       id="path6102"
       inkscape:connector-curvature="0"
       sodipodi:nodetypes="cc" />
    <ellipse
       ry="34.346069"
       rx="5.6312203"
       cy="519.11908"
       cx="159.62267"
       id="ellipse6085"
       style="color:#000000;clip-rule:nonzero;display:inline;overflow:visible;visibility:visible;opacity:1;isolation:auto;mix-blend-mode:normal;color-interpolation:sRGB;color-interpolation-filters:linearRGB;solid-color:#000000;solid-opacity:1;fill:#48595d;fill-opacity:1;fill-rule:nonzero;stroke:#000000;stroke-width:2.48713994;stroke-linecap:butt;stroke-linejoin:round;stroke-miterlimit:4;stroke-dasharray:none;stroke-dashoffset:0;stroke-opacity:1;marker:none;color-rendering:auto;image-rendering:auto;shape-rendering:auto;text-rendering:auto;enable-background:accumulate" />
    <path
       sodipodi:nodetypes="cc"
       inkscape:connector-curvature="0"
       id="path6134"
       d="m 26.75722,477.68374 c 1.083887,-0.0109 4.983929,0.0274 5.300833,0.0272"
       style="color:#000000;clip-rule:nonzero;display:inline;overflow:visible;visibility:visible;opacity:1;isolation:auto;mix-blend-mode:normal;color-interpolation:sRGB;color-interpolation-filters:linearRGB;solid-color:#000000;solid-opacity:1;fill:none;fill-opacity:1;fill-rule:nonzero;stroke:#cccccc;stroke-width:3.43053794;stroke-linecap:round;stroke-linejoin:miter;stroke-miterlimit:4;stroke-dasharray:none;stroke-dashoffset:0;stroke-opacity:1;color-rendering:auto;image-rendering:auto;shape-rendering:auto;text-rendering:auto;enable-background:accumulate" />
    <path
       sodipodi:nodetypes="cc"
       inkscape:connector-curvature="0"
       id="path6136"
       d="m 157.69682,537.13635 c 0.73136,-0.0109 3.36294,0.0274 3.57678,0.0272"
       style="color:#000000;clip-rule:nonzero;display:inline;overflow:visible;visibility:visible;opacity:1;isolation:auto;mix-blend-mode:normal;color-interpolation:sRGB;color-interpolation-filters:linearRGB;solid-color:#000000;solid-opacity:1;fill:none;fill-opacity:1;fill-rule:nonzero;stroke:#808080;stroke-width:3.43053794;stroke-linecap:round;stroke-linejoin:miter;stroke-miterlimit:4;stroke-dasharray:none;stroke-dashoffset:0;stroke-opacity:1;color-rendering:auto;image-rendering:auto;shape-rendering:auto;text-rendering:auto;enable-background:accumulate" />
    <g
       id="icon-playground2"
       transform="matrix(0.58577533,0,0,0.58577533,-30.776548,359.98341)"
       inkscape:label="#g4832"
       inkscape:export-xdpi="144"
       inkscape:export-ydpi="144">
      <circle
         transform="matrix(0.70710678,-0.70710678,0.70710678,0.70710678,0,0)"
         style="color:#000000;clip-rule:nonzero;display:inline;overflow:visible;visibility:visible;opacity:1;isolation:auto;mix-blend-mode:normal;color-interpolation:sRGB;color-interpolation-filters:linearRGB;solid-color:#000000;solid-opacity:1;fill:#cccccc;fill-opacity:1;fill-rule:nonzero;stroke:none;stroke-width:4;stroke-linecap:round;stroke-linejoin:round;stroke-miterlimit:4;stroke-dasharray:none;stroke-dashoffset:0;stroke-opacity:1;marker:none;color-rendering:auto;image-rendering:auto;shape-rendering:auto;text-rendering:auto;enable-background:accumulate"
         id="circle4765"
         cx="-25.454679"
         cy="493.43484"
         r="67.251289" />
      <g
         transform="translate(203.57143,-91.428572)"
         id="g4824">
        <g
           id="tuyau"
           transform="matrix(0.70710678,-0.70710678,0.70710678,0.70710678,126.51824,459.22314)">
          <path
             sodipodi:nodetypes="czssccccczsszzcccc"
             inkscape:connector-curvature="0"
             id="path3839"
             d="m -49.24275,-17.66075 c 0,0 12.179088,-0.193174 15.132528,1.139636 2.95344,1.33281 1.540379,8.6303413 3.134945,10.9281723 2.02704,2.9210415 58.782597,0.5606239 62.235657,0.2284909 4.069181,-0.3913948 2.83117,-9.9310792 3.265044,-11.0558292 l 14.622006,-0.9877 0,-11.54092 -5.592194,-0.11369 0.22329,6.534339 c 0,0 -11.994582,-0.449686 -14.060799,1.555241 -2.066216,2.004927 -1.415615,8.614131 -2.239041,9.713848 -1.385398,1.8502519 -20.9687898,0.768092 -27.36431973,0.770092 -3.19774997,10e-4 -23.38971227,1.8925134 -24.79807627,0.123884 -1.408364,-1.768629 -0.517202,-9.24756 -2.702591,-10.968988 -2.185388,-1.721429 -14.707378,-2.05097 -14.707378,-2.05097 l -0.0402,-6.016203 -7.108875,0.160997 z"
             style="color:#000000;font-style:normal;font-variant:normal;font-weight:normal;font-stretch:normal;font-size:medium;line-height:normal;font-family:Sans;-inkscape-font-specification:Sans;text-indent:0;text-align:start;text-decoration:none;text-decoration-line:none;letter-spacing:normal;word-spacing:normal;text-transform:none;direction:ltr;block-progression:tb;writing-mode:lr-tb;baseline-shift:baseline;text-anchor:start;display:inline;overflow:visible;visibility:visible;fill:#93a7ac;fill-opacity:1;stroke:#000000;stroke-width:2;stroke-miterlimit:4;stroke-dasharray:none;marker:none;enable-background:accumulate" />
          <path
             style="color:#000000;font-style:normal;font-variant:normal;font-weight:normal;font-stretch:normal;font-size:medium;line-height:normal;font-family:Sans;-inkscape-font-specification:Sans;text-indent:0;text-align:start;text-decoration:none;text-decoration-line:none;letter-spacing:normal;word-spacing:normal;text-transform:none;direction:ltr;block-progression:tb;writing-mode:lr-tb;baseline-shift:baseline;text-anchor:start;display:inline;overflow:visible;visibility:visible;fill:#93a7ac;fill-opacity:1;stroke:#000000;stroke-width:2;stroke-miterlimit:4;stroke-dasharray:none;marker:none;enable-background:accumulate"
             d="m -49.24275,16.835501 c 0,0 14.53562,-0.09744 15.895174,-1.279366 3.820133,-3.32104 1.485463,-8.6725852 3.562144,-10.6938339 3.562621,-3.4675239 57.013709,-0.5659469 60.466769,0.6590441 3.85271,1.366767 2.652599,8.9489358 3.086473,10.0736858 l 15.37962,0.9877 0,11.54092 -7.003024,0.06907 0.654755,-6.02681 c 0,0 -13.92657,0.322006 -15.190146,-1.784105 -1.539686,-2.56633 0.11738,-7.742348 -0.798657,-8.965751 C 25.42496,9.5658037 6.5098962,9.665821 0.11436627,9.663821 -3.0833837,9.662821 -23.59102,8.528922 -24.999384,10.297551 c -1.408364,1.768629 -1.145473,8.318689 -3.249137,10.243871 -2.103664,1.925182 -14.444272,1.763012 -14.444272,1.763012 l -0.153017,5.993651 -6.39694,0.117016 z"
             id="path4139"
             inkscape:connector-curvature="0"
             sodipodi:nodetypes="cssscccccssszzcccc" />
        </g>
      </g>
    </g>
    <text
       sodipodi:linespacing="125%"
       id="text5984"
       y="554.44293"
       x="46.230225"
       style="font-style:normal;font-variant:normal;font-weight:normal;font-stretch:normal;font-size:70.78974915px;line-height:125%;font-family:'akaDylan Plain';-inkscape-font-specification:'akaDylan Plain';letter-spacing:0px;word-spacing:0px;fill:#ffcb2a;fill-opacity:1;stroke:#000000;stroke-width:2.57290339;stroke-linecap:butt;stroke-linejoin:miter;stroke-miterlimit:4;stroke-dasharray:none;stroke-opacity:1"
       xml:space="preserve"><tspan
         y="554.44293"
         x="46.230225"
         sodipodi:role="line"
         style="stroke-width:2.57290339"
         id="tspan4193">12</tspan></text>
    <g
       inkscape:export-ydpi="144"
       inkscape:export-xdpi="144"
       inkscape:label="#g4832"
       transform="matrix(0.58577533,0,0,0.58577533,102.43084,366.04432)"
       id="icon-Pg_4_pressostats">
      <circle
         r="67.251289"
         cy="493.43484"
         cx="-25.454679"
         id="circle4190"
         style="color:#000000;clip-rule:nonzero;display:inline;overflow:visible;visibility:visible;opacity:1;isolation:auto;mix-blend-mode:normal;color-interpolation:sRGB;color-interpolation-filters:linearRGB;solid-color:#000000;solid-opacity:1;fill:#cccccc;fill-opacity:1;fill-rule:nonzero;stroke:none;stroke-width:4;stroke-linecap:round;stroke-linejoin:round;stroke-miterlimit:4;stroke-dasharray:none;stroke-dashoffset:0;stroke-opacity:1;marker:none;color-rendering:auto;image-rendering:auto;shape-rendering:auto;text-rendering:auto;enable-background:accumulate"
         transform="matrix(0.70710678,-0.70710678,0.70710678,0.70710678,0,0)" />
      <path
         sodipodi:nodetypes="csssssccccsssssccsssssccccsssssc"
         inkscape:connector-curvature="0"
         d="m 353.67746,396.41082 c 0.66262,5.62979 1.90541,15.57647 -1.94656,20.4085 -4.78166,5.99827 -19.07378,5.28396 -40.47284,4.88569 -11.48708,-0.2138 -6.25393,-39.52292 -10.47351,-41.58264 -3.34693,-1.63375 -4.6674,-0.14529 -5.27826,3.6794 -0.4153,2.60026 0.43066,3.18607 -2.01947,5.42832 -2.45012,2.24224 -3.58731,2.05336 -3.58731,2.05336 l 0.11591,6.98076 -6.27395,0.13629 0,-13.48667 c 0,0 3.39502,0.0901 5.14056,-1.07411 1.74553,-1.16424 0.37439,-5.5749 2.48495,-8.20882 0.67535,-0.84282 -0.53903,-0.75039 12.51903,-0.98636 10.49981,-0.18974 -0.28713,41.06257 11.33967,41.16356 2.74941,0.0239 27.00972,1.63767 30.16705,-0.74748 5.86846,-4.43322 3.44929,-12.74274 3.49064,-18.50801 m -12.37223,2.62878 c -0.43108,5.48145 -0.1905,0.36237 -0.43108,4.12608 -0.0729,1.13982 -11.60881,0.99633 -11.87875,-0.76096 -1.2984,-8.45257 -0.2948,-48.00854 -9.90307,-48.54943 -8.26269,-0.46514 -15.02023,0.18683 -15.77712,-0.76368 -1.64031,-2.05991 -0.60238,-10.77057 -3.14769,-12.7755 -2.5453,-2.00494 -4.77614,-2.38875 -4.77614,-2.38875 l -0.0468,-7.00703 -6.80901,0.18752 10e-6,13.48667 c 0,0 1.83146,-0.22499 5.27131,1.32732 3.43985,1.55232 1.79407,10.0517 3.65125,12.72796 0.77904,1.12264 7.128,0.46405 20.14367,1.51735 6.77122,0.54796 3.96198,44.25319 7.06222,46.25801 3.56634,2.30624 15.2783,2.73228 18.45638,1.61036 3.42005,-1.20734 3.24514,-4.41406 3.14695,-8.46596"
         style="color:#000000;font-style:normal;font-variant:normal;font-weight:normal;font-stretch:normal;font-size:medium;line-height:normal;font-family:Sans;-inkscape-font-specification:Sans;text-indent:0;text-align:start;text-decoration:none;text-decoration-line:none;letter-spacing:normal;word-spacing:normal;text-transform:none;direction:ltr;block-progression:tb;writing-mode:lr-tb;baseline-shift:baseline;text-anchor:start;display:inline;overflow:visible;visibility:visible;fill:#93a7ac;fill-opacity:1;stroke:#000000;stroke-width:2.3293848;stroke-miterlimit:4;stroke-dasharray:none;marker:none;enable-background:accumulate"
         id="path4139-8" />
      <g
         id="g4244"
         transform="matrix(1.1646924,0,0,1.2630592,282.94072,303.15241)">
        <rect
           y="7.3185048"
           x="45.456863"
           height="67.932755"
           width="15.909903"
           id="rect4242"
           style="color:#000000;clip-rule:nonzero;display:inline;overflow:visible;visibility:visible;opacity:1;isolation:auto;mix-blend-mode:normal;color-interpolation:sRGB;color-interpolation-filters:linearRGB;solid-color:#000000;solid-opacity:1;fill:#ffffff;fill-opacity:1;fill-rule:evenodd;stroke:none;stroke-width:2;stroke-linecap:butt;stroke-linejoin:miter;stroke-miterlimit:4;stroke-dasharray:none;stroke-dashoffset:0;stroke-opacity:1;marker:none;color-rendering:auto;image-rendering:auto;shape-rendering:auto;text-rendering:auto;enable-background:accumulate" />
      </g>
      <path
         style="color:#000000;clip-rule:nonzero;display:inline;overflow:visible;visibility:visible;opacity:1;isolation:auto;mix-blend-mode:normal;color-interpolation:sRGB;color-interpolation-filters:linearRGB;solid-color:#000000;solid-opacity:1;fill:#ffcc00;fill-opacity:1;fill-rule:evenodd;stroke:#000000;stroke-width:2.32938457;stroke-linecap:butt;stroke-linejoin:miter;stroke-miterlimit:4;stroke-dasharray:none;stroke-dashoffset:0;stroke-opacity:1;marker:none;color-rendering:auto;image-rendering:auto;shape-rendering:auto;text-rendering:auto;enable-background:accumulate"
         d="m 347.09891,310.41042 c -0.5584,-0.0118 -1.13489,-4.4e-4 -1.72657,0.0364 -9.4668,0.58934 -13.96948,4.99999 -13.96948,4.99999 l 0,84.1175 c 9.55867,4.23677 22.02906,2.10267 26.8084,-0.26512 l 0.50273,-84.65993 c -1.91869,-1.57726 -5.84655,-4.10691 -11.61508,-4.22884 z m 3.86259,7.46176 0,74.41953 c -3.48043,1.67944 -6.96085,1.84844 -10.44128,0 l 0,-74.41953 c 3.51798,-1.9935 7.37948,-1.94664 10.44128,0 z"
         id="rect4148"
         inkscape:connector-curvature="0"
         sodipodi:nodetypes="ssccccsccccc" />
      <path
         style="fill:#ff0000;fill-rule:evenodd;stroke:#000000;stroke-width:2.3293848;stroke-linecap:butt;stroke-linejoin:miter;stroke-miterlimit:4;stroke-dasharray:none;stroke-opacity:1"
         d="m 331.26687,359.48476 29.43402,0.10869 6.81729,5.93852 -6.51702,5.59558 -30.02408,-0.11031 -6.1092,-5.80651 z"
         id="aiguille"
         inkscape:connector-curvature="0"
         inkscape:transform-center-x="-8.8096843"
         inkscape:transform-center-y="0.30781827"
         aiguille=""
         aig=""
         inkscape:export-xdpi="144"
         inkscape:export-ydpi="144"
         sodipodi:nodetypes="ccccccc"
         inkscape:export-filename="pressostat-arrow.png" />
    </g>
    <g
       id="icon-PG_Capa1"
       inkscape:label="#g4347"
       inkscape:export-xdpi="144"
       inkscape:export-ydpi="144"
       transform="translate(37.375644,283.85287)">
      <g
         inkscape:export-ydpi="144"
         inkscape:export-xdpi="144"
         inkscape:label="#g4832"
         transform="matrix(0.58577533,0,0,0.58577533,183.24304,85.221915)"
         id="g4277">
        <circle
           r="67.251289"
           cy="493.43484"
           cx="-25.454679"
           id="circle4279"
           style="color:#000000;clip-rule:nonzero;display:inline;overflow:visible;visibility:visible;opacity:1;isolation:auto;mix-blend-mode:normal;color-interpolation:sRGB;color-interpolation-filters:linearRGB;solid-color:#000000;solid-opacity:1;fill:#cccccc;fill-opacity:1;fill-rule:nonzero;stroke:none;stroke-width:4;stroke-linecap:round;stroke-linejoin:round;stroke-miterlimit:4;stroke-dasharray:none;stroke-dashoffset:0;stroke-opacity:1;marker:none;color-rendering:auto;image-rendering:auto;shape-rendering:auto;text-rendering:auto;enable-background:accumulate"
           transform="matrix(0.70710678,-0.70710678,0.70710678,0.70710678,0,0)" />
      </g>
      <g
         transform="matrix(0.70710678,0.70710678,-0.70710678,0.70710678,323.29861,-178.93578)"
         id="g4336">
        <path
           sodipodi:nodetypes="cszszszszsc"
           inkscape:connector-curvature="0"
           id="spring"
           d="m 355.24674,320.66296 c 1.8318,-2.00204 6.31072,-2.02092 6.23437,-1.27519 -0.0765,0.74746 -6.51752,1.38578 -6.23436,-3.01883 0.28315,-4.40461 6.16651,-1.83556 6.17478,-1.03724 0.009,0.86553 -6.11608,1.68858 -6.17478,-2.89115 -0.0587,-4.57971 6.25815,-3.57115 6.26577,-2.46254 0.008,1.13319 -6.82556,2.00928 -6.26578,-2.55644 0.55977,-4.56571 6.0299,-2.247 6.03977,-1.66626 0.0102,0.59835 -6.11388,-0.082 -6.03976,-1.64544 0.0741,-1.56349 5.92695,-2.95878 5.97961,-1.59013 0.0193,0.5023 -5.956,0.0864 -6.01232,-1.63856"
           style="fill:none;fill-rule:evenodd;stroke:#000000;stroke-width:0.54085153;stroke-linecap:butt;stroke-linejoin:miter;stroke-miterlimit:4;stroke-dasharray:none;stroke-opacity:1"
           inkscape:label="#path4186"
           inkscape:export-filename=".\spring.png"
           inkscape:export-xdpi="142.73643"
           inkscape:export-ydpi="142.73643" />
        <path
           inkscape:export-ydpi="142.73643"
           inkscape:export-xdpi="142.73643"
           inkscape:export-filename=".\spring.png"
           inkscape:label="#path4186"
           style="fill:none;fill-rule:evenodd;stroke:#000000;stroke-width:0.54085153;stroke-linecap:butt;stroke-linejoin:miter;stroke-miterlimit:4;stroke-dasharray:none;stroke-opacity:1"
           d="m 393.1641,320.66296 c 1.83179,-2.00204 6.31072,-2.02092 6.23437,-1.27519 -0.0766,0.74746 -6.51752,1.38578 -6.23437,-3.01883 0.28316,-4.40461 6.16653,-1.83556 6.17479,-1.03724 0.009,0.86553 -6.11607,1.68858 -6.17479,-2.89115 -0.0587,-4.57971 6.25813,-3.57121 6.26578,-2.46254 0.008,1.13319 -6.82555,2.00928 -6.26578,-2.55644 0.55977,-4.56571 6.0299,-2.247 6.03977,-1.66626 0.0102,0.59835 -6.11388,-0.082 -6.03977,-1.64544 0.0741,-1.56349 5.92697,-2.95878 5.97962,-1.59013 0.0193,0.5023 -5.95601,0.0864 -6.01231,-1.63856"
           id="path4330"
           inkscape:connector-curvature="0"
           sodipodi:nodetypes="cszszszszsc" />
        <path
           sodipodi:nodetypes="cszszszszsc"
           inkscape:connector-curvature="0"
           id="path4332"
           d="m 393.1641,299.44056 c 1.83179,-2.00205 6.31072,-2.02093 6.23437,-1.2752 -0.0766,0.74747 -6.51752,1.38579 -6.23437,-3.01882 0.28316,-4.4046 6.16653,-1.83556 6.17478,-1.03725 0.009,0.86553 -6.11607,1.68858 -6.17478,-2.89113 -0.0587,-4.57973 6.25814,-3.57121 6.26578,-2.46256 0.008,1.13321 -6.82554,2.0093 -6.26578,-2.55642 0.55977,-4.56572 6.0299,-2.24702 6.03976,-1.66627 0.0102,0.59836 -6.11387,-0.082 -6.03976,-1.64544 0.0741,-1.56349 5.92697,-2.95877 5.97962,-1.59013 0.0193,0.50229 -5.956,0.0864 -6.01231,-1.63856"
           style="fill:none;fill-rule:evenodd;stroke:#000000;stroke-width:0.54085153;stroke-linecap:butt;stroke-linejoin:miter;stroke-miterlimit:4;stroke-dasharray:none;stroke-opacity:1"
           inkscape:label="#path4186"
           inkscape:export-filename=".\spring.png"
           inkscape:export-xdpi="142.73643"
           inkscape:export-ydpi="142.73643" />
        <rect
           style="color:#000000;clip-rule:nonzero;display:inline;overflow:visible;visibility:visible;opacity:1;isolation:auto;mix-blend-mode:normal;color-interpolation:sRGB;color-interpolation-filters:linearRGB;solid-color:#000000;solid-opacity:1;fill:#666666;fill-opacity:1;fill-rule:nonzero;stroke:#000000;stroke-width:0.84036428;stroke-linecap:butt;stroke-linejoin:miter;stroke-miterlimit:4;stroke-dasharray:none;stroke-dashoffset:0;stroke-opacity:1;marker:none;color-rendering:auto;image-rendering:auto;shape-rendering:auto;text-rendering:auto;enable-background:accumulate"
           id="piston"
           width="2.5210929"
           height="51.176376"
           x="-302.07556"
           y="351.32098"
           inkscape:label="#rect4139"
           inkscape:export-filename=".\piston.png"
           inkscape:export-xdpi="142"
           inkscape:export-ydpi="142"
           transform="matrix(0,-1,1,0,0,0)" />
        <path
           inkscape:export-ydpi="142.73643"
           inkscape:export-xdpi="142.73643"
           inkscape:export-filename=".\spring.png"
           inkscape:label="#path4186"
           style="fill:none;fill-rule:evenodd;stroke:#000000;stroke-width:0.54085153;stroke-linecap:butt;stroke-linejoin:miter;stroke-miterlimit:4;stroke-dasharray:none;stroke-opacity:1"
           d="m 355.24675,299.44056 c 1.83179,-2.00205 6.31071,-2.02093 6.23436,-1.2752 -0.0765,0.74747 -6.51752,1.38579 -6.23436,-3.01882 0.28315,-4.4046 6.16651,-1.83556 6.17478,-1.03725 0.009,0.86553 -6.11609,1.68858 -6.17478,-2.89113 -0.0587,-4.57973 6.25812,-3.57121 6.26577,-2.46256 0.008,1.13321 -6.82555,2.0093 -6.26577,-2.55642 0.55977,-4.56572 6.02989,-2.24702 6.03976,-1.66627 0.0101,0.59836 -6.11388,-0.082 -6.03976,-1.64544 0.0741,-1.56349 5.92695,-2.95877 5.97961,-1.59013 0.0193,0.50229 -5.95599,0.0864 -6.01232,-1.63856"
           id="path4334"
           inkscape:connector-curvature="0"
           sodipodi:nodetypes="cszszszszsc" />
        <g
           transform="matrix(0,-0.56024285,0.56024285,0,348.61548,328.82715)"
           id="g4209"
           inkscape:export-filename="capa.png"
           inkscape:export-xdpi="142.73643"
           inkscape:export-ydpi="142.73643">
          <g
             transform="matrix(1.0088584,0,0,0.99993185,50.196754,50.000018)"
             id="tuyau-9">
            <path
               id="path5047"
               style="color:#000000;font-style:normal;font-variant:normal;font-weight:normal;font-stretch:normal;font-size:medium;line-height:normal;font-family:Sans;-inkscape-font-specification:Sans;text-indent:0;text-align:start;text-decoration:none;text-decoration-line:none;letter-spacing:normal;word-spacing:normal;text-transform:none;direction:ltr;block-progression:tb;writing-mode:lr-tb;baseline-shift:baseline;text-anchor:start;display:inline;overflow:visible;visibility:visible;fill:#93a7ac;fill-opacity:1;stroke:#000000;stroke-width:1.5;stroke-miterlimit:4;stroke-dasharray:none;marker:none;enable-background:accumulate"
               d="m -0.01191,48.142474 c -10.235586,-0.0011 -20.783112,0.915653 -30.577582,0.362728 -3.245611,-0.183223 -5.781397,-2.374905 -7.652844,-4.98 -2.376045,-3.307508 -1.593042,-11.49722 -1.619254,-17.929308 -0.0066,-1.619032 -3.70238,-1.17027 -3.70238,-1.17027 l -0.35231,5.04423 -5.32694,0.21813 0,-11.59724 c 0,0 -0.13839,-0.33994 9.83443,-0.11844 7.30215,4.11604 1.54362,20.836768 5.401203,24.240248 4.676933,4.126379 22.779282,2.946838 33.99647271,2.686668 C 9.7504654,44.6728 19.862548,45.668183 27.167438,44.012743 c 1.22391,-0.27737 7.280495,-0.768327 8.202895,-3.604267 1.95105,-5.99857 0.946177,-20.27363 2.546327,-20.499052 5.289994,-0.745231 11.33379,-1.18366 11.33379,-1.18366 l 0,10.83812 -4.03634,-0.21813 -0.1006,-4.41193 -3.97426,-0.32824 c 0.146939,5.210536 -1.147445,11.624176 -0.947227,15.11101 0.259691,4.522584 -0.149698,6.780726 -10.35663,8.25172 -8.657998,1.247765 -19.9431293,0.174998 -29.847303,0.17416 z"
               inkscape:connector-curvature="0"
               sodipodi:nodetypes="cssscccccssssscccccssc" />
            <path
               sodipodi:nodetypes="cssscccccssssscccccsc"
               inkscape:connector-curvature="0"
               d="m -0.01191,-47.434986 c -7.9117639,8.36e-4 -16.191175,-0.284758 -23.235992,-0.04691 -6.729258,0.227194 -16.974943,-0.318581 -16.65483,8.485123 0.133632,3.675123 0.06397,8.50547 0.04114,14.108366 -0.0066,1.619032 -3.70238,1.17027 -3.70238,1.17027 l -0.35231,-5.04423 -5.32694,-0.21813 0,11.59724 c 0,0 -0.13839,0.33994 9.83443,0.11844 7.30215,-4.11604 0.318963,-22.596311 5.295887,-23.898193 9.02836,-2.361671 23.350823,-1.224405 34.568013,-2.096265 9.734844,-0.756644 25.75229,-1.577956 33.08406,-0.04597 3.639306,0.760439 3.770801,10.004481 3.69606,12.617926 -0.172185,6.020692 -0.15195,12.595137 1.45847,12.728648 2.69143,0.223131 10.479046,-0.137314 10.479046,-0.137314 l 0.0777,-10.760416 -4.03634,0.21813 -0.1006,4.41193 -3.97426,0.32824 c 0.374628,-13.28433 1.472506,-20.274572 -6.39978,-22.846952 C 26.688295,-49.375885 9.5546737,-47.4358 -0.01191,-47.434986 Z"
               style="color:#000000;font-style:normal;font-variant:normal;font-weight:normal;font-stretch:normal;font-size:medium;line-height:normal;font-family:Sans;-inkscape-font-specification:Sans;text-indent:0;text-align:start;text-decoration:none;text-decoration-line:none;letter-spacing:normal;word-spacing:normal;text-transform:none;direction:ltr;block-progression:tb;writing-mode:lr-tb;baseline-shift:baseline;text-anchor:start;display:inline;overflow:visible;visibility:visible;fill:#93a7ac;fill-opacity:1;stroke:#000000;stroke-width:1.5;stroke-miterlimit:4;stroke-dasharray:none;marker:none;enable-background:accumulate"
               id="path5162" />
          </g>
        </g>
      </g>
    </g>
    <g
       transform="matrix(0.70710678,-0.70710678,0.70710678,0.70710678,46.281757,637.33104)"
       inkscape:export-ydpi="144"
       inkscape:export-xdpi="144"
       inkscape:label="#g4347"
       id="icon-PG_Diode1">
      <g
         id="g4363"
         transform="matrix(0.58577533,0,0,0.58577533,183.24304,85.221915)"
         inkscape:label="#g4832"
         inkscape:export-xdpi="144"
         inkscape:export-ydpi="144">
        <circle
           transform="matrix(0.70710678,-0.70710678,0.70710678,0.70710678,0,0)"
           style="color:#000000;clip-rule:nonzero;display:inline;overflow:visible;visibility:visible;opacity:1;isolation:auto;mix-blend-mode:normal;color-interpolation:sRGB;color-interpolation-filters:linearRGB;solid-color:#000000;solid-opacity:1;fill:#cccccc;fill-opacity:1;fill-rule:nonzero;stroke:none;stroke-width:4;stroke-linecap:round;stroke-linejoin:round;stroke-miterlimit:4;stroke-dasharray:none;stroke-dashoffset:0;stroke-opacity:1;marker:none;color-rendering:auto;image-rendering:auto;shape-rendering:auto;text-rendering:auto;enable-background:accumulate"
           id="circle4365"
           cx="-25.454679"
           cy="493.43484"
           r="67.251289" />
      </g>
      <path
         sodipodi:nodetypes="sssssss"
         inkscape:connector-curvature="0"
         id="diode-membrane"
         d="m 386.20191,293.33162 c -0.59406,-0.87848 -2.63213,-1.0779 -2.63222,0.17038 -1.6e-4,2.20335 -0.26013,6.03581 -0.18951,7.63178 0.12807,2.89419 -0.46926,8.80249 0.88487,8.79106 0.42468,-0.003 1.71995,0.26608 2.18988,-0.58379 1.02844,-1.85996 0.68412,-6.03221 0.61016,-8.63448 -0.10776,-3.79132 0.10074,-5.94958 -0.86318,-7.37495 z"
         style="color:#000000;clip-rule:nonzero;display:inline;overflow:visible;visibility:visible;opacity:1;isolation:auto;mix-blend-mode:normal;color-interpolation:sRGB;color-interpolation-filters:linearRGB;solid-color:#000000;solid-opacity:1;fill:#93a7ac;fill-opacity:1;fill-rule:nonzero;stroke:#000000;stroke-width:1.2205981;stroke-linecap:butt;stroke-linejoin:miter;stroke-miterlimit:4;stroke-dasharray:none;stroke-dashoffset:0;stroke-opacity:1;marker:none;color-rendering:auto;image-rendering:auto;shape-rendering:auto;text-rendering:auto;enable-background:accumulate"
         inkscape:label="#membrane"
         inkscape:export-filename=".\diode-membrane.png"
         inkscape:export-xdpi="143.29262"
         inkscape:export-ydpi="143.29262" />
      <g
         id="diode-tube"
         transform="matrix(0.61029905,0,0,0.61029905,376.77418,300.94727)"
         inkscape:label="#tuyau"
         inkscape:export-filename="diode-tube.png"
         inkscape:export-xdpi="143.29262"
         inkscape:export-ydpi="143.29262">
        <path
           id="path5162-2"
           style="color:#000000;font-style:normal;font-variant:normal;font-weight:normal;font-stretch:normal;font-size:medium;line-height:normal;font-family:Sans;-inkscape-font-specification:Sans;text-indent:0;text-align:start;text-decoration:none;text-decoration-line:none;letter-spacing:normal;word-spacing:normal;text-transform:none;direction:ltr;block-progression:tb;writing-mode:lr-tb;baseline-shift:baseline;text-anchor:start;display:inline;overflow:visible;visibility:visible;fill:#93a7ac;fill-opacity:1;stroke:#000000;stroke-width:2;stroke-miterlimit:4;stroke-dasharray:none;marker:none;enable-background:accumulate"
           d="m 3.6475973,-22.880509 c -0.7797045,3.16e-4 1.6754293,9.860406 -1.4637714,10.496017 -2.94327368,0.595939 -22.0808569,-7.950132 -25.2596889,-11.015401 -8.729314,-0.08972 -11.523708,0.180335 -15.231646,-0.08984 -1.614764,-0.117658 -5.256461,-0.228403 -5.256461,-0.228403 l -0.35231,-5.04423 -5.32694,-0.21813 0,11.59724 c 5.262032,0.575464 20.278538,0.06692 25.991443,1.725016 14.961888,4.342493 26.3856327,12.6195322 31.2609679,12.4942517 0.8313793,-13.5382117 0.059131,-9.9380177 0.2152495,-14.8097387 6.9561906,-0.300997 27.5842606,-1.310459 29.6922196,-0.140352 6.353718,0.0512 11.33379,0.0958 11.33379,0.0958 l 0,-10.83812 -4.03634,0.21813 -0.1006,4.41193 -3.97426,0.32824 c -27.837327,0.481303 -31.3144956,1.171395 -37.4916527,1.01759 z"
           inkscape:connector-curvature="0"
           sodipodi:nodetypes="cscsccccsccccccccc" />
        <path
           sodipodi:nodetypes="cscsccccsccccccccc"
           inkscape:connector-curvature="0"
           d="M 3.9772677,24.183793 C 3.0538697,24.183419 5.0149175,12.522672 3.0367727,12.028512 -1.6298967,10.86273 -19.41835,20.451066 -26.041749,24.190369 c -5.310826,0.09422 -10.034974,0.220324 -12.26576,0.382868 -1.614764,0.117658 -5.256461,0.228403 -5.256461,0.228403 l -0.35231,5.04423 -5.32694,0.21813 0,-11.59724 c 5.381477,-0.588527 17.691147,0.305882 23.583069,-1.216758 5.968519,-1.542434 28.8362629,-13.1267044 33.6693419,-13.00251 0.8313793,13.538212 0.4476516,9.938018 0.6037697,14.809739 6.9561904,0.300997 27.1957404,1.310459 29.3036994,0.140352 6.353718,-0.0512 11.33379,-0.0958 11.33379,-0.0958 l 0,10.83812 -4.03634,-0.21813 -0.1006,-4.41193 -3.97426,-0.32824 C 13.301923,24.5003 10.154425,24.029988 3.9772677,24.183793 Z"
           style="color:#000000;font-style:normal;font-variant:normal;font-weight:normal;font-stretch:normal;font-size:medium;line-height:normal;font-family:Sans;-inkscape-font-specification:Sans;text-indent:0;text-align:start;text-decoration:none;text-decoration-line:none;letter-spacing:normal;word-spacing:normal;text-transform:none;direction:ltr;block-progression:tb;writing-mode:lr-tb;baseline-shift:baseline;text-anchor:start;display:inline;overflow:visible;visibility:visible;fill:#93a7ac;fill-opacity:1;stroke:#000000;stroke-width:2;stroke-miterlimit:4;stroke-dasharray:none;marker:none;enable-background:accumulate"
           id="path4139-5" />
      </g>
    </g>
    <g
       id="icon-PG_Transistor0a"
       inkscape:label="#g4347"
       inkscape:export-xdpi="144"
       inkscape:export-ydpi="144"
       transform="matrix(0.70710678,-0.70710678,0.70710678,0.70710678,160.42899,637.33104)">
      <g
         inkscape:export-ydpi="144"
         inkscape:export-xdpi="144"
         inkscape:label="#g4832"
         transform="matrix(0.58577533,0,0,0.58577533,170.74304,71.293344)"
         id="g4405">
        <circle
           r="67.251289"
           cy="493.43484"
           cx="-25.454679"
           id="circle4407"
           style="color:#000000;clip-rule:nonzero;display:inline;overflow:visible;visibility:visible;opacity:1;isolation:auto;mix-blend-mode:normal;color-interpolation:sRGB;color-interpolation-filters:linearRGB;solid-color:#000000;solid-opacity:1;fill:#cccccc;fill-opacity:1;fill-rule:nonzero;stroke:none;stroke-width:4;stroke-linecap:round;stroke-linejoin:round;stroke-miterlimit:4;stroke-dasharray:none;stroke-dashoffset:0;stroke-opacity:1;marker:none;color-rendering:auto;image-rendering:auto;shape-rendering:auto;text-rendering:auto;enable-background:accumulate"
           transform="matrix(0.70710678,-0.70710678,0.70710678,0.70710678,0,0)" />
      </g>
      <g
         id="g4465"
         transform="matrix(0.58013406,0,0,0.58013406,144.25748,105.02548)">
        <g
           inkscape:export-ydpi="144"
           inkscape:export-xdpi="144"
           inkscape:export-filename="NPN-tube.png"
           inkscape:label="#g4254"
           id="transistor-tube"
           transform="matrix(0.70710678,0.70710678,-0.70710678,0.70710678,380.26244,240.75741)">
          <path
             style="color:#000000;clip-rule:nonzero;display:inline;overflow:visible;visibility:visible;opacity:1;isolation:auto;mix-blend-mode:normal;color-interpolation:sRGB;color-interpolation-filters:linearRGB;solid-color:#000000;solid-opacity:1;fill:#93a7ac;fill-opacity:1;fill-rule:nonzero;stroke:#000000;stroke-width:2;stroke-linecap:round;stroke-linejoin:round;stroke-miterlimit:4;stroke-dasharray:none;stroke-dashoffset:0;stroke-opacity:1;marker:none;color-rendering:auto;image-rendering:auto;shape-rendering:auto;text-rendering:auto;enable-background:accumulate"
             d="m 0.94349303,67.519702 0,11.966423 6.52713957,0.466224 0.1554081,-4.423607 3.2096713,0.230142 14.950986,14.943288 -0.299772,3.081497 -4.196018,-0.155409 0.466224,5.594693 10.878566,2e-6 -1.254309,-13.686959 -14.471081,-11.862277 6.371732,-8.884925 -9.333185,3.139072 c 0,0 -9.8360049,-0.348137 -13.00536197,-0.408164 z"
             id="path4141"
             inkscape:connector-curvature="0"
             sodipodi:nodetypes="ccccccccccccccc" />
          <path
             style="color:#000000;clip-rule:nonzero;display:inline;overflow:visible;visibility:visible;opacity:1;isolation:auto;mix-blend-mode:normal;color-interpolation:sRGB;color-interpolation-filters:linearRGB;solid-color:#000000;solid-opacity:1;fill:#93a7ac;fill-opacity:1;fill-rule:nonzero;stroke:#000000;stroke-width:2;stroke-linecap:round;stroke-linejoin:round;stroke-miterlimit:4;stroke-dasharray:none;stroke-dashoffset:0;stroke-opacity:1;marker:none;color-rendering:auto;image-rendering:auto;shape-rendering:auto;text-rendering:auto;enable-background:accumulate"
             d="m 0.94349303,23.26142 0.31081617,9.635301 5.0686695,0.200926 c 6.6020853,0.280591 13.0433873,1.858924 17.0038533,7.209687 l 4.123949,19.206341 6.630559,-8.682102 C 33.860883,47.541396 34.602599,43.919495 34.566343,40.015435 34.461691,28.746322 34.278662,10.957474 34.05282,0.7315323 l -12.496614,0.14207633 0.201881,6.34753317 5.451057,-0.1018126 0.236244,4.6295948 -15.358473,14.838347 -3.8282024,-0.06228 0,-4.95097 -7.1598165,-0.777044 z"
             id="path4157"
             inkscape:connector-curvature="0"
             sodipodi:nodetypes="ccccccscccccccccc" />
          <path
             style="color:#000000;clip-rule:nonzero;display:inline;overflow:visible;visibility:visible;opacity:1;isolation:auto;mix-blend-mode:normal;color-interpolation:sRGB;color-interpolation-filters:linearRGB;solid-color:#000000;solid-opacity:1;fill:#93a7ac;fill-opacity:1;fill-rule:nonzero;stroke:#000000;stroke-width:2;stroke-linecap:round;stroke-linejoin:round;stroke-miterlimit:4;stroke-dasharray:none;stroke-dashoffset:0;stroke-opacity:1;marker:none;color-rendering:auto;image-rendering:auto;shape-rendering:auto;text-rendering:auto;enable-background:accumulate"
             d="M 67.816636,0.95171318 C 67.773128,3.4976657 67.671298,5.20948 67.780217,7.728075 c 2.459436,13.640236 0.907503,21.238122 0.842217,32.723962 -0.06529,11.48584 0.866367,36.950851 -0.800327,50.726102 l -0.219589,8.122525 15.074584,2e-6 0.155408,-7.071072 -6.147375,-0.932448 C 78.314034,73.414676 75.16948,15.07798 75.355408,9.1772973 l 6.478386,-0.091036 -0.66715,-8.0607489 z"
             id="path4173"
             inkscape:connector-curvature="0"
             sodipodi:nodetypes="cczccccccccc" />
        </g>
        <path
           inkscape:export-ydpi="143.29262"
           inkscape:export-xdpi="143.29262"
           inkscape:export-filename=".\NPN-valve.png"
           inkscape:label="#membrane"
           style="color:#000000;clip-rule:nonzero;display:inline;overflow:visible;visibility:visible;opacity:1;isolation:auto;mix-blend-mode:normal;color-interpolation:sRGB;color-interpolation-filters:linearRGB;solid-color:#000000;solid-opacity:1;fill:#ffff00;fill-opacity:1;fill-rule:nonzero;stroke:#000000;stroke-width:2;stroke-linecap:round;stroke-linejoin:round;stroke-miterlimit:4;stroke-dasharray:none;stroke-dashoffset:0;stroke-opacity:1;marker:none;color-rendering:auto;image-rendering:auto;shape-rendering:auto;text-rendering:auto;enable-background:accumulate"
           d="m 376.65824,297.16254 c -2.20545,0.38419 -3.47791,1.56433 -3.62841,3.70167 l 20.35597,20.2637 c 1.91049,-0.5361 3.24325,-1.64727 3.68669,-3.64365 z"
           id="NPN-valve"
           inkscape:connector-curvature="0"
           sodipodi:nodetypes="ccccc" />
        <g
           inkscape:export-ydpi="143"
           inkscape:export-xdpi="143"
           inkscape:export-filename="NPN-piston.png"
           inkscape:label="#g4245"
           transform="matrix(0.9383457,0.34569832,-0.34569832,0.9383457,351.97897,238.65175)"
           inkscape:transform-center-y="11.866784"
           inkscape:transform-center-x="7.9295755"
           id="NPN-piston">
          <path
             sodipodi:nodetypes="cc"
             style="fill:none;fill-rule:evenodd;stroke:#333333;stroke-width:4;stroke-linecap:butt;stroke-linejoin:miter;stroke-miterlimit:4;stroke-dasharray:none;stroke-opacity:1"
             d="M 57.134887,51.211941 C 49.056239,69.532806 34.838703,76.931244 26.31713,62.923415"
             id="path4243"
             inkscape:connector-curvature="0" />
          <path
             sodipodi:nodetypes="ccccc"
             inkscape:connector-curvature="0"
             id="diode-membrane-2"
             d="m 35.891703,60.02617 c 0.482938,-0.882795 -1.284403,-4.509986 -2.332034,-3.964977 -2.521503,1.321966 -11.198832,5.85521 -16.988115,9.498817 0.184825,0.355296 1.834401,4.078975 2.748796,4.102747 5.607736,-2.308087 11.592929,-5.8924 16.571353,-9.636587 z"
             style="color:#000000;clip-rule:nonzero;display:inline;overflow:visible;visibility:visible;opacity:1;isolation:auto;mix-blend-mode:normal;color-interpolation:sRGB;color-interpolation-filters:linearRGB;solid-color:#000000;solid-opacity:1;fill:#ffff00;fill-opacity:1;fill-rule:nonzero;stroke:#000000;stroke-width:2;stroke-linecap:butt;stroke-linejoin:miter;stroke-miterlimit:4;stroke-dasharray:none;stroke-dashoffset:0;stroke-opacity:1;marker:none;color-rendering:auto;image-rendering:auto;shape-rendering:auto;text-rendering:auto;enable-background:accumulate"
             inkscape:label="#membrane"
             inkscape:export-filename=".\diode-membrane.png"
             inkscape:export-xdpi="143.29262"
             inkscape:export-ydpi="143.29262" />
          <circle
             r="4.9730587"
             style="color:#000000;clip-rule:nonzero;display:inline;overflow:visible;visibility:visible;opacity:1;isolation:auto;mix-blend-mode:normal;color-interpolation:sRGB;color-interpolation-filters:linearRGB;solid-color:#000000;solid-opacity:1;fill:#ff0000;fill-opacity:1;fill-rule:nonzero;stroke:#000000;stroke-width:2;stroke-linecap:round;stroke-linejoin:round;stroke-miterlimit:4;stroke-dasharray:none;stroke-dashoffset:0;stroke-opacity:1;marker:none;color-rendering:auto;image-rendering:auto;shape-rendering:auto;text-rendering:auto;enable-background:accumulate"
             id="path4239"
             cx="55.487438"
             cy="54.775501" />
          <circle
             r="1.8961356"
             cy="54.775501"
             cx="55.487438"
             id="circle4241"
             style="color:#000000;clip-rule:nonzero;display:inline;overflow:visible;visibility:visible;opacity:1;isolation:auto;mix-blend-mode:normal;color-interpolation:sRGB;color-interpolation-filters:linearRGB;solid-color:#000000;solid-opacity:1;fill:#1a1a1a;fill-opacity:1;fill-rule:nonzero;stroke:none;stroke-width:2;stroke-linecap:round;stroke-linejoin:round;stroke-miterlimit:4;stroke-dasharray:none;stroke-dashoffset:0;stroke-opacity:1;marker:none;color-rendering:auto;image-rendering:auto;shape-rendering:auto;text-rendering:auto;enable-background:accumulate" />
        </g>
      </g>
    </g>
  </g>
</svg>
