<?xml version="1.0" encoding="UTF-8" standalone="no"?>
<!-- Created with Inkscape (http://www.inkscape.org/) -->

<svg
   xmlns:dc="http://purl.org/dc/elements/1.1/"
   xmlns:cc="http://creativecommons.org/ns#"
   xmlns:rdf="http://www.w3.org/1999/02/22-rdf-syntax-ns#"
   xmlns:svg="http://www.w3.org/2000/svg"
   xmlns="http://www.w3.org/2000/svg"
   xmlns:sodipodi="http://sodipodi.sourceforge.net/DTD/sodipodi-0.dtd"
   xmlns:inkscape="http://www.inkscape.org/namespaces/inkscape"
   width="100"
   height="100"
   id="svg2"
   version="1.1"
   inkscape:version="0.91 r13725"
   sodipodi:docname="debimetre.svg"
   inkscape:export-filename="C:\Users\Tristan\Google Drive\Programmation\Processing\tuyau_V6_P2D\data\debimetre-cadran2.png"
   inkscape:export-xdpi="300"
   inkscape:export-ydpi="300">
  <defs
     id="defs4">
    <filter
       inkscape:collect="always"
       style="color-interpolation-filters:sRGB"
       id="filter4218"
       x="-0.067610086"
       width="1.1352202"
       y="-0.088881194"
       height="1.1777624">
      <feGaussianBlur
         inkscape:collect="always"
         stdDeviation="2.3564747"
         id="feGaussianBlur4220" />
    </filter>
  </defs>
  <sodipodi:namedview
     id="base"
     pagecolor="#ffffff"
     bordercolor="#666666"
     borderopacity="1.0"
     inkscape:pageopacity="0.0"
     inkscape:pageshadow="2"
     inkscape:zoom="7.9195959"
     inkscape:cx="28.248384"
     inkscape:cy="44.545217"
     inkscape:document-units="px"
     inkscape:current-layer="svg2"
     showgrid="false"
     inkscape:window-width="1920"
     inkscape:window-height="1005"
     inkscape:window-x="-9"
     inkscape:window-y="-9"
     inkscape:window-maximized="1"
     fit-margin-top="0"
     fit-margin-left="0"
     fit-margin-right="0"
     fit-margin-bottom="0"
     showborder="false" />
  <metadata
     id="metadata7">
    <rdf:RDF>
      <cc:Work
         rdf:about="">
        <dc:format>image/svg+xml</dc:format>
        <dc:type
           rdf:resource="http://purl.org/dc/dcmitype/StillImage" />
        <dc:title />
      </cc:Work>
    </rdf:RDF>
  </metadata>
  <rect
     style="color:#000000;clip-rule:nonzero;display:inline;overflow:visible;visibility:visible;opacity:1;isolation:auto;mix-blend-mode:normal;color-interpolation:sRGB;color-interpolation-filters:linearRGB;solid-color:#000000;solid-opacity:1;fill:#ffffff;fill-opacity:1;fill-rule:nonzero;stroke:#000000;stroke-width:1.99999988;stroke-linecap:butt;stroke-linejoin:miter;stroke-miterlimit:4;stroke-dasharray:none;stroke-dashoffset:0;stroke-opacity:0.52036252;marker:none;color-rendering:auto;image-rendering:auto;shape-rendering:auto;text-rendering:auto;enable-background:accumulate"
     id="rect4147"
     width="98"
     height="98"
     x="1.25"
     y="1" />
  <rect
     style="color:#000000;clip-rule:nonzero;display:inline;overflow:visible;visibility:visible;opacity:1;isolation:auto;mix-blend-mode:normal;color-interpolation:sRGB;color-interpolation-filters:linearRGB;solid-color:#000000;solid-opacity:1;fill:#ffffff;fill-opacity:1;fill-rule:nonzero;stroke:none;stroke-width:1;stroke-linecap:butt;stroke-linejoin:miter;stroke-miterlimit:4;stroke-dasharray:none;stroke-dashoffset:0;stroke-opacity:0.52036252;marker:none;color-rendering:auto;image-rendering:auto;shape-rendering:auto;text-rendering:auto;enable-background:accumulate"
     id="water"
     width="100"
     height="38.92857"
     x="0.25"
     y="32.15498"
     inkscape:label="#rect4142" />
  <g
     id="tuyau"
     inkscape:label="tuyau"
     transform="translate(50.25,50.000008)">
    <path
       style="color:#000000;font-style:normal;font-variant:normal;font-weight:normal;font-stretch:normal;font-size:medium;line-height:normal;font-family:Sans;-inkscape-font-specification:Sans;text-indent:0;text-align:start;text-decoration:none;text-decoration-line:none;letter-spacing:normal;word-spacing:normal;text-transform:none;direction:ltr;block-progression:tb;writing-mode:lr-tb;baseline-shift:baseline;text-anchor:start;display:inline;overflow:visible;visibility:visible;fill:#93a7ac;fill-opacity:1;stroke:#000000;stroke-width:2;stroke-miterlimit:4;stroke-dasharray:none;marker:none;enable-background:accumulate"
       d="m -49.25,17.656564 c 0,0 7.67694,-0.0346 17.6776,0.18619 27.26402,-1.82204 38.86672,1.74059 61.38049,-0.0377 l 19.44191,-0.40125 0,11.28811 -8.382963,0.240221 -0.20387,-5.98245 c 0,0 -34.603937,3.749145 -41.006587,3.747595 -6.40265,-0.002 -39.41083,-3.473246 -39.41083,-3.473246 l -0.3533,5.79433 -9.14245,0.2178 z"
       id="path4431"
       inkscape:connector-curvature="0"
       sodipodi:nodetypes="ccccccczcccc" />
    <path
       sodipodi:nodetypes="ccccccczcccc"
       inkscape:connector-curvature="0"
       id="path3839-2"
       d="m -49.24275,-17.664936 c 0,0 14.63267,0.21317 24.6222,-0.008 21.69928,-1.92795 27.72983,2.7237 54.34775,-0.14087 l 19.42023,0.40126 0,-11.54092 -6.602346,-0.113689 -0.20363,5.98245 c 0,0 -36.336634,-1.65858 -42.732164,-1.65703 -6.3955,0.002 -40.127574,1.50896 -40.127574,1.50896 l -0.3529,-5.79433 -8.371566,-0.21781 z"
       style="color:#000000;font-style:normal;font-variant:normal;font-weight:normal;font-stretch:normal;font-size:medium;line-height:normal;font-family:Sans;-inkscape-font-specification:Sans;text-indent:0;text-align:start;text-decoration:none;text-decoration-line:none;letter-spacing:normal;word-spacing:normal;text-transform:none;direction:ltr;block-progression:tb;writing-mode:lr-tb;baseline-shift:baseline;text-anchor:start;display:inline;overflow:visible;visibility:visible;fill:#93a7ac;fill-opacity:1;stroke:#000000;stroke-width:2;stroke-miterlimit:4;stroke-dasharray:none;marker:none;enable-background:accumulate" />
  </g>
  <g
     id="cadran1"
     transform="translate(50.25,43.035714)">
    <path
       sodipodi:nodetypes="czccscc"
       inkscape:connector-curvature="0"
       style="color:#000000;clip-rule:nonzero;display:inline;overflow:visible;visibility:visible;opacity:1;isolation:auto;mix-blend-mode:normal;color-interpolation:sRGB;color-interpolation-filters:linearRGB;solid-color:#000000;solid-opacity:1;fill:#ffffff;fill-opacity:1;fill-rule:evenodd;stroke:none;stroke-width:1.5;stroke-linecap:butt;stroke-linejoin:miter;stroke-miterlimit:4;stroke-dasharray:none;stroke-dashoffset:0;stroke-opacity:1;marker:none;color-rendering:auto;image-rendering:auto;shape-rendering:auto;text-rendering:auto;enable-background:accumulate"
       d="m 15.486866,17.410815 c 0,0 -4.608158,-3.933274 -15.28736344,-3.933274 -10.67920556,0 -14.84659956,4.027748 -14.84659956,4.027748 L -38.040658,-3.9444047 c 0,0 8.270771,-27.6341803 38.45960722,-26.7014613 C 30.607785,-29.713148 38.926673,-4.3709072 38.926673,-4.3709072 Z"
       id="path4297-0" />
  </g>
  <path
     style="fill:#ff0000;fill-rule:evenodd;stroke:#000000;stroke-width:2;stroke-linecap:butt;stroke-linejoin:miter;stroke-miterlimit:4;stroke-dasharray:none;stroke-opacity:1"
     d="m 45.039978,47.753921 0.0933,-25.271926 5.098791,-5.853298 4.804332,5.59548 -0.0947,25.778564 z"
     id="aiguille"
     inkscape:connector-curvature="0"
     inkscape:transform-center-x="-0.45117768"
     inkscape:transform-center-y="-12.912735"
     aiguille=""
     aig=""
     inkscape:export-xdpi="300"
     inkscape:export-ydpi="300"
     sodipodi:nodetypes="cccccc" />
  <path
     style="color:#000000;clip-rule:nonzero;display:inline;overflow:visible;visibility:visible;opacity:1;isolation:auto;mix-blend-mode:normal;color-interpolation:sRGB;color-interpolation-filters:linearRGB;solid-color:#000000;solid-opacity:1;fill:#ffffff;fill-opacity:1;fill-rule:evenodd;stroke:none;stroke-width:1.99999988;stroke-linecap:butt;stroke-linejoin:miter;stroke-miterlimit:4;stroke-dasharray:none;stroke-dashoffset:0;stroke-opacity:1;marker:none;filter:url(#filter4218);color-rendering:auto;image-rendering:auto;shape-rendering:auto;text-rendering:auto;enable-background:accumulate"
     d="M 5.8272021,46.131009 C 6.8030041,57.829727 4.1888326,72.118734 16.269492,76.235941 28.350151,80.353148 77.858855,80.542682 86.812045,72.979918 95.765235,65.417154 94.52973,57.524365 94.755216,47.317262 95.156804,29.138562 87.60233,4.2574352 50.760797,4.1929603 13.919264,4.1284855 4.8513972,34.432289 5.8272021,46.131009 Z M 50.628821,17.17629 c 23.899372,0.220579 30.80367,9.714479 30.80367,27.514004 L 62.706379,44.502883 c 0,0 -3.3344,-8.118451 -12.626107,-8.118451 -9.291707,0 -11.489397,8.474709 -11.489397,8.474709 L 19.308787,45.485227 C 18.666383,28.812254 26.72945,16.955712 50.628821,17.17629 Z"
     id="path4151-7"
     inkscape:connector-curvature="0"
     sodipodi:nodetypes="zzzszzzccsccz" />
  <g
     transform="translate(108.28571,48.035714)"
     id="g4149">
    <path
       style="color:#000000;clip-rule:nonzero;display:inline;overflow:visible;visibility:visible;opacity:1;isolation:auto;mix-blend-mode:normal;color-interpolation:sRGB;color-interpolation-filters:linearRGB;solid-color:#000000;solid-opacity:1;fill:#ffcc00;fill-opacity:1;fill-rule:evenodd;stroke:#000000;stroke-width:1.99999988;stroke-linecap:butt;stroke-linejoin:miter;stroke-miterlimit:4;stroke-dasharray:none;stroke-dashoffset:0;stroke-opacity:1;marker:none;color-rendering:auto;image-rendering:auto;shape-rendering:auto;text-rendering:auto;enable-background:accumulate"
       d="m -98.97002,-1.0424861 c 0.812038,15.7450791 3.756241,16.7034431 11.418088,24.5998561 7.661847,7.896413 49.611553,10.537753 59.563038,0.728568 9.951485,-9.809184 11.732914,-14.6493537 11.9584,-24.85645713 0.401587,-18.17869987 -8.158307,-40.41917687 -42.030133,-41.12937787 -33.871826,-0.710201 -41.72143,24.912331 -40.909393,40.6574109 z m 41.313131,-34.1026519 c 24.668791,0.733525 36.721908,14.680123 36.204141,35.56612544 l -26.090869,-0.0252473 c 0,0 -1.548685,-7.40416534 -10.840392,-7.40416534 -9.291707,0 -10.59654,7.40328144 -10.59654,7.40328144 L -93.14906,0.45830203 C -94.770649,-18.709191 -82.32568,-35.878663 -57.656889,-35.145138 Z"
       id="path4151"
       inkscape:connector-curvature="0"
       sodipodi:nodetypes="zzzszzzccsccz" />
    <path
       inkscape:export-ydpi="300"
       inkscape:export-xdpi="300"
       aig=""
       aiguille=""
       inkscape:transform-center-y="0.2886565"
       inkscape:transform-center-x="-7.0507983"
       inkscape:connector-curvature="0"
       id="path4152"
       d="m -74.658419,8.6203008 27.548911,-0.410358 6.609685,4.8529202 -6.284257,4.737054 -27.961319,0.416502 6.44393,-4.798059 z"
       style="fill:#ff7f2a;fill-rule:evenodd;stroke:#000000;stroke-width:2;stroke-linecap:butt;stroke-linejoin:miter;stroke-miterlimit:4;stroke-dasharray:none;stroke-opacity:1"
       sodipodi:nodetypes="ccccccc" />
  </g>
</svg>
