<?xml version="1.0" encoding="UTF-8" standalone="no"?>
<!-- Created with Inkscape (http://www.inkscape.org/) -->

<svg
   xmlns:dc="http://purl.org/dc/elements/1.1/"
   xmlns:cc="http://creativecommons.org/ns#"
   xmlns:rdf="http://www.w3.org/1999/02/22-rdf-syntax-ns#"
   xmlns:svg="http://www.w3.org/2000/svg"
   xmlns="http://www.w3.org/2000/svg"
   xmlns:sodipodi="http://sodipodi.sourceforge.net/DTD/sodipodi-0.dtd"
   xmlns:inkscape="http://www.inkscape.org/namespaces/inkscape"
   width="100"
   height="99.999992"
   id="svg2"
   version="1.1"
   inkscape:version="0.91 r13725"
   sodipodi:docname="capacite.svg"
   inkscape:export-filename="C:\Users\Tristan\Google Drive\Programmation\Processing\tuyau_V3_P2D\data\capacite-membrane.png"
   inkscape:export-xdpi="300"
   inkscape:export-ydpi="300">
  <defs
     id="defs4" />
  <sodipodi:namedview
     id="base"
     pagecolor="#ffffff"
     bordercolor="#666666"
     borderopacity="1.0"
     inkscape:pageopacity="0.0"
     inkscape:pageshadow="2"
     inkscape:zoom="6.4346717"
     inkscape:cx="23.017623"
     inkscape:cy="64.765682"
     inkscape:document-units="px"
     inkscape:current-layer="svg2"
     showgrid="false"
     inkscape:window-width="1920"
     inkscape:window-height="1005"
     inkscape:window-x="-9"
     inkscape:window-y="-9"
     inkscape:window-maximized="1"
     fit-margin-top="0"
     fit-margin-left="0"
     fit-margin-right="0"
     fit-margin-bottom="0" />
  <metadata
     id="metadata7">
    <rdf:RDF>
      <cc:Work
         rdf:about="">
        <dc:format>image/svg+xml</dc:format>
        <dc:type
           rdf:resource="http://purl.org/dc/dcmitype/StillImage" />
        <dc:title />
      </cc:Work>
    </rdf:RDF>
  </metadata>
  <rect
     style="color:#000000;clip-rule:nonzero;display:inline;overflow:visible;visibility:visible;opacity:1;isolation:auto;mix-blend-mode:normal;color-interpolation:sRGB;color-interpolation-filters:linearRGB;solid-color:#000000;solid-opacity:1;fill:#c37667;fill-opacity:1;fill-rule:nonzero;stroke:none;stroke-width:1;stroke-linecap:butt;stroke-linejoin:miter;stroke-miterlimit:4;stroke-dasharray:none;stroke-dashoffset:0;stroke-opacity:0.52036252;marker:none;color-rendering:auto;image-rendering:auto;shape-rendering:auto;text-rendering:auto;enable-background:accumulate"
     id="rect4154"
     width="100"
     height="100"
     x="0.19681101"
     y="-7.6293945e-006" />
  <path
     style="color:#000000;clip-rule:nonzero;display:inline;overflow:visible;visibility:visible;opacity:1;isolation:auto;mix-blend-mode:normal;color-interpolation:sRGB;color-interpolation-filters:linearRGB;solid-color:#000000;solid-opacity:1;fill:#ffffff;fill-opacity:1;fill-rule:nonzero;stroke:none;stroke-width:1;stroke-linecap:butt;stroke-linejoin:miter;stroke-miterlimit:4;stroke-dasharray:none;stroke-dashoffset:0;stroke-opacity:0.52036252;marker:none;color-rendering:auto;image-rendering:auto;shape-rendering:auto;text-rendering:auto;enable-background:accumulate"
     d="M 20,6.713735 13.11594,13.194492 10.144782,29.096359 0,28.626275 0,73.228404 10.732434,72.897929 12.560099,85.177399 20,93.586863 Z"
     id="water1"
     inkscape:connector-curvature="0"
     sodipodi:nodetypes="ccccccccc" />
  <path
     sodipodi:nodetypes="ccccccccc"
     inkscape:connector-curvature="0"
     id="water2"
     d="m 79.963699,6.713735 6.964297,6.480757 3.005789,15.901867 10.263025,-0.470084 0,44.602129 -10.857526,-0.330475 -1.84897,12.27947 -7.526615,8.409464 z"
     style="color:#000000;clip-rule:nonzero;display:inline;overflow:visible;visibility:visible;opacity:1;isolation:auto;mix-blend-mode:normal;color-interpolation:sRGB;color-interpolation-filters:linearRGB;solid-color:#000000;solid-opacity:1;fill:#ffffff;fill-opacity:1;fill-rule:nonzero;stroke:none;stroke-width:1;stroke-linecap:butt;stroke-linejoin:miter;stroke-miterlimit:4;stroke-dasharray:none;stroke-dashoffset:0;stroke-opacity:0.52036252;marker:none;color-rendering:auto;image-rendering:auto;shape-rendering:auto;text-rendering:auto;enable-background:accumulate" />
  <path
     sodipodi:nodetypes="ssccccs"
     inkscape:connector-curvature="0"
     id="membrane"
     d="m 51.587717,8.3204843 c -1.37556,-3.6792729 -2.39516,-1.2640476 -3.06127,3.8233167 -1.20828,9.228089 -1.43206,30.939696 -0.329,37.326091 2.31349,9.494005 -1.19009,27.31397 1.06066,37.017421 -1.506,11.468803 7.22837,6.980942 5.67015,-1.966698 -3.76129,-10.251317 0.50798,-27.902719 -2.05262,-37.483994 -1.74458,-9.040878 0.94397,-32.746387 -1.28792,-38.7161367 z"
     style="fill:#666666;stroke:#000000;stroke-width:1.5;stroke-linecap:butt;stroke-linejoin:miter;stroke-opacity:1;stroke-miterlimit:4;stroke-dasharray:none" />
  <g
     id="tuyau"
     transform="translate(50.196811,50)">
    <path
       sodipodi:nodetypes="cscccccssssscccccc"
       inkscape:connector-curvature="0"
       d="m -0.01191,48.142474 c -18.92062,-0.002 -39.7476,2.50261 -39.84968,-22.54658 -0.007,-1.61903 -3.70238,-1.17027 -3.70238,-1.17027 l -0.35231,5.04423 -5.32694,0.21813 0,-11.59724 c 0,0 -0.13839,-0.33994 9.83443,-0.11844 7.30215,4.11604 3.68891,18.08169 8.04314,20.82127 9.02836,5.68046 21.225202,4.967143 32.4423923,4.706973 9.7615797,-0.22642 18.6303977,0.458147 25.9352877,-1.197293 1.22391,-0.27737 6.03723,-2.94404 6.95963,-5.77998 1.95105,-5.99857 2.53499,-15.82444 3.945,-16.61385 6.19831,-3.47018 11.33379,-1.18366 11.33379,-1.18366 l 0,10.83812 -4.03634,-0.21813 -0.1006,-4.41193 -3.97426,-0.32824 c 0.75776,26.87053 -22.23054,23.53849 -41.15116,23.53689 z"
       style="color:#000000;font-style:normal;font-variant:normal;font-weight:normal;font-stretch:normal;font-size:medium;line-height:normal;font-family:Sans;-inkscape-font-specification:Sans;text-indent:0;text-align:start;text-decoration:none;text-decoration-line:none;letter-spacing:normal;word-spacing:normal;text-transform:none;direction:ltr;block-progression:tb;writing-mode:lr-tb;baseline-shift:baseline;text-anchor:start;display:inline;overflow:visible;visibility:visible;fill:#93a7ac;fill-opacity:1;stroke:#000000;stroke-width:1.5;stroke-miterlimit:4;stroke-dasharray:none;marker:none;enable-background:accumulate"
       id="path5047" />
    <path
       id="path5162"
       style="color:#000000;font-style:normal;font-variant:normal;font-weight:normal;font-stretch:normal;font-size:medium;line-height:normal;font-family:Sans;-inkscape-font-specification:Sans;text-indent:0;text-align:start;text-decoration:none;text-decoration-line:none;letter-spacing:normal;word-spacing:normal;text-transform:none;direction:ltr;block-progression:tb;writing-mode:lr-tb;baseline-shift:baseline;text-anchor:start;display:inline;overflow:visible;visibility:visible;fill:#93a7ac;fill-opacity:1;stroke:#000000;stroke-width:1.5;stroke-miterlimit:4;stroke-dasharray:none;marker:none;enable-background:accumulate"
       d="m -0.01191,-47.434986 c -18.92062,0.002 -39.7476,-2.50261 -39.84968,22.54658 -0.007,1.61903 -3.70238,1.17027 -3.70238,1.17027 l -0.35231,-5.04423 -5.32694,-0.21813 0,11.59724 c 0,0 -0.13839,0.33994 9.83443,0.11844 7.30215,-4.11604 3.68891,-18.08168 8.04314,-20.82127 9.02836,-5.68045 20.60357,-5.433368 31.82076,-5.173188 9.76158,0.22641 19.25203,0.0081 26.55692,1.663518 1.22391,0.27736 6.03723,2.94403 6.95963,5.77997 1.95105,5.99857 2.53499,15.82445 3.945,16.61385 6.19831,3.47018 11.33379,1.18366 11.33379,1.18366 l 0,-10.83812 -4.03634,0.21813 -0.1006,4.41193 -3.97426,0.32824 c 0.75776,-26.87052 -22.23054,-23.53849 -41.15116,-23.53689 z"
       inkscape:connector-curvature="0"
       sodipodi:nodetypes="cscccccssssscccccc" />
  </g>
</svg>
