<?xml version="1.0" encoding="UTF-8" standalone="no"?>
<!-- Created with Inkscape (http://www.inkscape.org/) -->

<svg
   xmlns:dc="http://purl.org/dc/elements/1.1/"
   xmlns:cc="http://creativecommons.org/ns#"
   xmlns:rdf="http://www.w3.org/1999/02/22-rdf-syntax-ns#"
   xmlns:svg="http://www.w3.org/2000/svg"
   xmlns="http://www.w3.org/2000/svg"
   xmlns:sodipodi="http://sodipodi.sourceforge.net/DTD/sodipodi-0.dtd"
   xmlns:inkscape="http://www.inkscape.org/namespaces/inkscape"
   width="256"
   height="256"
   viewBox="0 0 67.733332 67.733335"
   version="1.1"
   id="svg8"
   inkscape:version="0.92.3 (2405546, 2018-03-11)"
   sodipodi:docname="icones_designer.svg">
  <defs
     id="defs2">
    <filter
       inkscape:collect="always"
       style="color-interpolation-filters:sRGB"
       id="filter1193"
       x="-0.047697547"
       width="1.0953951"
       y="-0.016008338"
       height="1.0320167">
      <feGaussianBlur
         inkscape:collect="always"
         stdDeviation="0.14050535"
         id="feGaussianBlur1195" />
    </filter>
    <filter
       inkscape:collect="always"
       style="color-interpolation-filters:sRGB"
       id="filter1233"
       x="-0.02040161"
       width="1.0408032"
       y="-0.28076157"
       height="1.5615231">
      <feGaussianBlur
         inkscape:collect="always"
         stdDeviation="0.2235948"
         id="feGaussianBlur1235" />
    </filter>
    <filter
       inkscape:collect="always"
       style="color-interpolation-filters:sRGB"
       id="filter1237"
       x="-0.02079069"
       width="1.0415814"
       y="-0.22529084"
       height="1.4505817">
      <feGaussianBlur
         inkscape:collect="always"
         stdDeviation="0.2235948"
         id="feGaussianBlur1239" />
    </filter>
    <filter
       inkscape:collect="always"
       style="color-interpolation-filters:sRGB"
       id="filter1291"
       x="-0.072"
       width="1.144"
       y="-0.072"
       height="1.144">
      <feGaussianBlur
         inkscape:collect="always"
         stdDeviation="1.9220089"
         id="feGaussianBlur1293" />
    </filter>
  </defs>
  <sodipodi:namedview
     id="base"
     pagecolor="#ffffff"
     bordercolor="#666666"
     borderopacity="1.0"
     inkscape:pageopacity="0"
     inkscape:pageshadow="2"
     inkscape:zoom="0.98994949"
     inkscape:cx="-250.37901"
     inkscape:cy="150.02409"
     inkscape:document-units="mm"
     inkscape:current-layer="layer1"
     showgrid="false"
     units="px"
     inkscape:snap-global="false"
     inkscape:window-width="1920"
     inkscape:window-height="1003"
     inkscape:window-x="-9"
     inkscape:window-y="-9"
     inkscape:window-maximized="1"
     inkscape:pagecheckerboard="true" />
  <metadata
     id="metadata5">
    <rdf:RDF>
      <cc:Work
         rdf:about="">
        <dc:format>image/svg+xml</dc:format>
        <dc:type
           rdf:resource="http://purl.org/dc/dcmitype/StillImage" />
        <dc:title></dc:title>
      </cc:Work>
    </rdf:RDF>
  </metadata>
  <g
     inkscape:label="Calque 1"
     inkscape:groupmode="layer"
     id="layer1"
     transform="translate(0,-229.26665)">
    <circle
       style="color:#000000;clip-rule:nonzero;display:inline;overflow:visible;visibility:visible;opacity:1;isolation:auto;mix-blend-mode:normal;color-interpolation:sRGB;color-interpolation-filters:linearRGB;solid-color:#000000;solid-opacity:1;vector-effect:none;fill:#ffffff;fill-opacity:1;fill-rule:nonzero;stroke:none;stroke-width:0.87648618;stroke-linecap:round;stroke-linejoin:miter;stroke-miterlimit:4;stroke-dasharray:none;stroke-dashoffset:0;stroke-opacity:1;marker:none;paint-order:fill markers stroke;filter:url(#filter1291);color-rendering:auto;image-rendering:auto;shape-rendering:auto;text-rendering:auto;enable-background:accumulate"
       id="path1241"
       cx="34.003582"
       cy="263.64359"
       r="32.033482"
       transform="matrix(0.90560471,0,0,0.90560471,3.0207895,24.470937)" />
    <g
       id="g1310">
      <path
         sodipodi:nodetypes="cccccc"
         inkscape:connector-curvature="0"
         id="path833"
         d="m 15.302474,251.8917 c 3.064305,9.88379 8.9134,23.38633 10.424028,33.78163 6.129348,-0.21217 11.503073,-1.37823 16.652414,-0.67109 l 2.456845,-0.23624 c 2.21744,-10.14368 5.970909,-21.10088 9.755338,-32.20599 -12.045197,-2.41238 -24.275151,-4.43984 -39.288625,-0.66831 z"
         style="opacity:1;vector-effect:none;fill:#999999;fill-opacity:1;fill-rule:evenodd;stroke:#666666;stroke-width:0.5291667;stroke-linecap:butt;stroke-linejoin:miter;stroke-miterlimit:4;stroke-dasharray:none;stroke-dashoffset:0;stroke-opacity:1" />
      <path
         inkscape:connector-curvature="0"
         id="path965"
         d="m 15.302474,251.8917 c 13.126998,-3.00589 28.998747,-1.20271 39.288625,0.66831"
         style="fill:none;fill-rule:evenodd;stroke:#000000;stroke-width:0.26458332px;stroke-linecap:butt;stroke-linejoin:miter;stroke-opacity:1" />
      <path
         sodipodi:nodetypes="cc"
         inkscape:connector-curvature="0"
         id="path963"
         d="m 44.301221,250.68899 c -5.629418,10.76296 -0.657561,22.80199 -5.930393,33.53564"
         style="fill:none;fill-rule:evenodd;stroke:#808080;stroke-width:0.79374999;stroke-linecap:butt;stroke-linejoin:miter;stroke-miterlimit:4;stroke-dasharray:none;stroke-opacity:1" />
      <path
         sodipodi:nodetypes="cc"
         inkscape:connector-curvature="0"
         id="path961"
         d="m 30.002303,250.95626 c 1.822226,11.31487 3.223427,22.22876 5.479015,33.47077"
         style="fill:none;fill-rule:evenodd;stroke:#808080;stroke-width:0.79374999;stroke-linecap:butt;stroke-linejoin:miter;stroke-miterlimit:4;stroke-dasharray:none;stroke-opacity:1" />
      <path
         inkscape:connector-curvature="0"
         id="path959"
         d="m 20.600221,250.55488 c 0.232479,11.64014 4.65438,23.40014 8.645494,34.69597"
         style="fill:none;fill-rule:evenodd;stroke:#808080;stroke-width:0.79374999;stroke-linecap:butt;stroke-linejoin:miter;stroke-miterlimit:4;stroke-dasharray:none;stroke-opacity:1" />
      <path
         sodipodi:nodetypes="cccccccccc"
         inkscape:connector-curvature="0"
         id="path923"
         d="m 41.115377,246.50381 c 0.138825,-1.69589 0.776603,-3.36242 1.318393,-4.99608 -0.66484,-0.17867 -1.917386,0.0448 -2.755002,0.0582 -4.195065,-0.16518 -8.279719,0.91046 -12.44194,1.04815 0.585375,0.75321 -0.04837,2.33929 0.444408,3.36446 l 0.696156,0.0292 c -0.288346,-0.63885 -0.166928,-1.60762 -0.103711,-2.19941 3.683219,-0.47321 7.428753,-0.84945 11.094069,-1.25181 -0.30061,1.28468 -1.306364,2.44067 -1.68868,3.53916 z"
         style="fill:#b3b3b3;fill-rule:evenodd;stroke:#666666;stroke-width:0.5291667;stroke-linecap:butt;stroke-linejoin:miter;stroke-miterlimit:4;stroke-dasharray:none;stroke-opacity:1" />
      <path
         inkscape:connector-curvature="0"
         id="path921"
         d="m 25.369141,244.73034 c -1.744463,0.0428 -3.487323,0.13289 -5.228333,0.2491 -0.711956,0.0452 -1.423263,0.10009 -2.134949,0.14934 -1.380895,0.34083 -2.762446,0.68653 -4.166702,0.91895 -0.770573,0.14558 -1.550029,0.27301 -2.290329,0.54003 -0.266119,0.11381 -0.41608,0.42623 -0.349614,0.70622 0.03852,0.43334 0.294937,0.80034 0.443704,1.19921 0.510303,1.13244 1.020607,2.26487 1.53091,3.39731 0.270613,0.39232 0.79582,0.51197 1.245068,0.4438 2.024706,-0.30292 4.042279,-0.66298 6.079639,-0.87325 1.299204,-0.12165 2.604109,-0.16443 3.907194,-0.2242 2.703026,-0.10451 5.408136,-0.17117 8.113335,-0.15607 1.022588,0.0107 2.044696,0.0431 3.066063,0.0939 2.256545,0.11066 4.508458,0.29665 6.760597,0.47257 1.663783,0.14447 3.327857,0.29597 4.983206,0.51892 2.049796,0.3268 4.051532,0.88609 6.061617,1.39278 0.604844,0.15803 1.209687,0.31606 1.814531,0.4741 0.491726,0.0576 0.948678,-0.2454 1.242568,-0.61632 0.594164,-0.75615 1.129849,-1.55559 1.68712,-2.33876 0.159291,-0.2675 0.249947,-0.58432 0.210937,-0.89649 -0.09185,-0.29619 -0.348752,-0.50094 -0.589248,-0.67742 -0.575956,-0.40175 -1.186513,-0.75064 -1.778442,-1.12792 -0.509598,-0.31619 -1.019196,-0.63238 -1.528794,-0.94856 -1.224127,-0.41601 -2.490717,-0.68512 -3.751155,-0.96405 -2.014119,-0.40868 -4.056609,-0.65842 -6.100909,-0.85707 -2.442656,-0.23016 -4.893282,-0.36202 -7.343517,-0.47988 -2.48029,-0.11472 -4.961335,-0.21142 -7.442599,-0.30231 -1.359409,-0.0481 -2.719317,-0.0959 -4.079627,-0.10167 -0.120757,0.003 -0.241514,0.005 -0.362271,0.008 z"
         style="fill:#999999;fill-rule:evenodd;stroke:#666666;stroke-width:0.5291667;stroke-linecap:butt;stroke-linejoin:miter;stroke-miterlimit:4;stroke-dasharray:none;stroke-opacity:1" />
      <path
         inkscape:connector-curvature="0"
         id="path981"
         d="m 36.611328,254.71862 c -0.725013,1.23332 -0.87499,2.69944 -0.888145,4.10277 -0.02131,1.83284 0.0018,3.66592 0.0019,5.49887 0.0093,4.71514 0.07268,9.43099 0.265196,14.1425 0.08337,0.84219 0.217161,1.67811 0.361328,2.51172 0.155585,0.26967 0.636488,0.16223 0.669922,-0.14453 0.431523,-1.21911 0.924282,-2.46368 0.892578,-3.7793 0.200838,-4.07926 0.432245,-8.17107 0.157015,-12.25256 -0.173015,-1.84224 -0.362994,-3.68288 -0.535007,-5.52521 -0.156126,-1.52954 -0.438479,-3.04558 -0.842711,-4.52887 -0.01251,-0.0282 -0.05649,-0.058 -0.08203,-0.0254 z"
         style="color:#000000;clip-rule:nonzero;display:inline;overflow:visible;visibility:visible;opacity:1;isolation:auto;mix-blend-mode:normal;color-interpolation:sRGB;color-interpolation-filters:linearRGB;solid-color:#000000;solid-opacity:1;vector-effect:none;fill:#999999;fill-opacity:1;fill-rule:nonzero;stroke:#808080;stroke-width:0.79374999;stroke-linecap:butt;stroke-linejoin:miter;stroke-miterlimit:4;stroke-dasharray:none;stroke-dashoffset:0;stroke-opacity:1;marker:none;paint-order:fill markers stroke;color-rendering:auto;image-rendering:auto;shape-rendering:auto;text-rendering:auto;enable-background:accumulate" />
      <path
         inkscape:connector-curvature="0"
         id="path983"
         d="m 47.783393,255.05979 c -0.326573,0.13007 -0.331956,0.53829 -0.382198,0.83261 -0.09034,0.64193 -0.167942,1.35062 -0.640353,1.84021 -0.472757,0.59393 -0.912563,1.28529 -0.917556,2.07046 -0.131251,1.03953 -0.107484,2.14937 -0.644116,3.08609 -0.369378,0.71774 -0.886923,1.36858 -1.107186,2.15608 -0.05506,1.22454 -0.0788,2.45098 -0.190868,3.6722 -0.20692,3.31575 -0.536854,6.62193 -0.796345,9.93364 -0.05861,0.69959 -0.117221,1.39919 -0.17583,2.09879 0.02943,0.29292 0.542295,0.28301 0.558744,-0.0125 1.145182,-4.08817 1.650621,-8.31398 2.227894,-12.50928 0.213443,-1.44656 0.393001,-2.9501 1.136909,-4.23942 0.482621,-0.89818 1.07809,-1.78913 1.166036,-2.83326 0.140834,-1.07063 0.266626,-2.17914 0.801967,-3.13846 0.258107,-0.53602 0.581989,-1.11986 0.45945,-1.73488 -0.160416,-0.55742 -0.700447,-0.86205 -1.17477,-1.12317 -0.09729,-0.0579 -0.204314,-0.11506 -0.321778,-0.0991 z"
         style="color:#000000;clip-rule:nonzero;display:inline;overflow:visible;visibility:visible;opacity:1;isolation:auto;mix-blend-mode:normal;color-interpolation:sRGB;color-interpolation-filters:linearRGB;solid-color:#000000;solid-opacity:1;vector-effect:none;fill:#999999;fill-opacity:1;fill-rule:nonzero;stroke:#808080;stroke-width:0.79374993;stroke-linecap:butt;stroke-linejoin:miter;stroke-miterlimit:4;stroke-dasharray:none;stroke-dashoffset:0;stroke-opacity:1;marker:none;paint-order:fill markers stroke;color-rendering:auto;image-rendering:auto;shape-rendering:auto;text-rendering:auto;enable-background:accumulate" />
      <path
         inkscape:connector-curvature="0"
         id="path985"
         d="m 23.897681,254.2611 c -0.102799,0.23116 -0.07571,0.51591 -0.113968,0.76958 -0.07178,1.34192 0.239456,2.66175 0.470774,3.9743 1.100943,5.64498 2.653747,11.19944 4.584041,16.61613 0.798046,2.17248 1.706018,4.30225 2.62895,6.42401 0.167777,0.23326 0.617403,0.0439 0.546193,-0.24279 -0.06073,-2.15657 -0.410605,-4.30321 -1.035404,-6.36816 -0.726933,-2.53925 -1.558038,-5.04722 -2.291992,-7.58443 -0.819648,-2.74882 -1.526856,-5.52918 -2.258255,-8.30219 -0.487433,-1.72589 -1.232569,-3.37349 -2.160212,-4.90647 -0.04754,-0.15653 -0.1824,-0.40984 -0.370127,-0.37998 z"
         style="color:#000000;clip-rule:nonzero;display:inline;overflow:visible;visibility:visible;opacity:1;isolation:auto;mix-blend-mode:normal;color-interpolation:sRGB;color-interpolation-filters:linearRGB;solid-color:#000000;solid-opacity:1;vector-effect:none;fill:#999999;fill-opacity:1;fill-rule:nonzero;stroke:#808080;stroke-width:0.79374999;stroke-linecap:butt;stroke-linejoin:miter;stroke-miterlimit:4;stroke-dasharray:none;stroke-dashoffset:0;stroke-opacity:1;marker:none;paint-order:fill markers stroke;color-rendering:auto;image-rendering:auto;shape-rendering:auto;text-rendering:auto;enable-background:accumulate" />
      <path
         sodipodi:nodetypes="aaaaaaaaa"
         inkscape:connector-curvature="0"
         id="path996"
         d="m 21.695312,246.15808 c -2.432265,0.36305 -4.863906,0.73023 -7.294921,1.10156 -0.221518,-0.0485 -0.464033,0.16151 -0.441407,0.38867 0.03202,0.20556 0.268398,0.28334 0.449997,0.28241 0.326346,-0.0108 0.650534,-0.06 0.976049,-0.0857 2.324869,-0.22325 4.648771,-0.45851 6.975783,-0.65799 1.514008,-0.0789 3.029275,-0.12882 4.544612,-0.17382 1.676271,-0.0553 3.353139,-0.0897 5.029859,-0.12798 0.886857,-0.0158 1.773604,-0.0422 2.66053,-0.0514 1.027221,-0.004 2.054489,0.008 3.081075,0.0457 0.817467,0.0291 1.633482,0.0876 2.450064,0.13402 0.07505,0.11151 0.218961,-0.13834 0.06641,-0.11133 -0.478866,-0.23163 -1.01277,-0.299 -1.525866,-0.41807 -0.870064,-0.18746 -1.757212,-0.28125 -2.643563,-0.34932 -1.532438,-0.0613 -3.066471,-0.0523 -4.599795,-0.0658 -2.890714,-0.0188 -5.78145,-0.0339 -8.672182,-0.0497 -0.352213,0.0462 -0.704427,0.0925 -1.056641,0.13868 z"
         style="fill:#cccccc;fill-rule:evenodd;stroke:none;stroke-width:0.79374999;stroke-linecap:round;stroke-linejoin:miter;stroke-miterlimit:4;stroke-dasharray:none;stroke-opacity:1;filter:url(#filter1233)" />
      <path
         style="fill:#cccccc;fill-rule:evenodd;stroke:none;stroke-width:0.79374999;stroke-linecap:round;stroke-linejoin:miter;stroke-miterlimit:4;stroke-dasharray:none;stroke-opacity:1;filter:url(#filter1237)"
         d="m 26.140625,248.08581 c -0.458261,0.0335 -0.911463,0.11593 -1.366084,0.18062 -2.031744,0.30555 -4.064463,0.60462 -6.094763,0.91972 -1.238274,0.18876 -2.475632,0.38389 -3.714934,0.56568 -0.259747,0.0148 -0.567927,0.33243 -0.345703,0.57226 0.224905,0.22845 0.560773,0.11273 0.838387,0.0929 1.362166,-0.15768 2.722251,-0.33295 4.084552,-0.48963 0.896864,-0.10246 1.792472,-0.21686 2.690651,-0.30721 1.030461,-0.0857 2.064472,-0.11459 3.097904,-0.13796 2.122814,-0.0332 4.245882,-0.0483 6.368917,-0.0576 2.46603,-0.007 4.932066,-0.008 7.398104,-0.007 0.410947,-0.0416 0.811279,-0.21342 1.109375,-0.50195 0.252896,-0.0809 0.15785,-0.58102 -0.125,-0.47852 -1.880865,-0.0718 -3.761713,-0.14576 -5.64319,-0.19946 -2.713435,-0.0784 -5.427883,-0.10928 -8.141966,-0.15601 -0.05208,0.001 -0.104167,0.003 -0.15625,0.004 z"
         id="path1176"
         inkscape:connector-curvature="0"
         sodipodi:nodetypes="aaaaaaaaa" />
      <path
         inkscape:connector-curvature="0"
         id="path1178"
         d="m -44.203125,253.43359 c -0.281754,0.37219 -0.222157,0.86491 -0.329219,1.29597 -0.148073,1.02049 -0.296146,2.04097 -0.444218,3.06146 0.06332,1.33172 0.138786,2.66748 0.04368,3.99958 -0.03156,1.37491 -0.09072,2.74897 -0.115074,4.12408 -0.05347,1.15732 0.05185,2.31652 0.2424,3.45764 0.241063,1.67912 0.400122,3.36856 0.603153,5.05246 0.05273,0.2023 -0.03386,0.52173 0.217516,0.61015 0.170091,0.0615 0.4179,-0.0308 0.418481,-0.2361 0.09904,-0.70529 -0.11027,-1.40043 -0.175025,-2.09869 -0.201767,-1.43353 -0.455835,-2.85992 -0.641505,-4.2954 -0.07113,-1.23002 0.0144,-2.46098 0.02901,-3.69102 -0.01959,-1.17862 -0.09213,-2.36079 0.01919,-3.537 0.06749,-1.02153 0.05883,-2.0458 0.05786,-3.06884 0.07837,-1.55039 0.155901,-3.10191 0.147977,-4.65476 -0.01441,-0.0238 -0.05015,-0.0423 -0.07422,-0.0195 z"
         style="color:#000000;clip-rule:nonzero;display:inline;overflow:visible;visibility:visible;opacity:1;isolation:auto;mix-blend-mode:normal;color-interpolation:sRGB;color-interpolation-filters:linearRGB;solid-color:#000000;solid-opacity:1;vector-effect:none;fill:#cccccc;fill-opacity:1;fill-rule:nonzero;stroke:none;stroke-width:0.79469824;stroke-linecap:round;stroke-linejoin:miter;stroke-miterlimit:4;stroke-dasharray:none;stroke-dashoffset:0;stroke-opacity:1;marker:none;paint-order:fill markers stroke;filter:url(#filter1193);color-rendering:auto;image-rendering:auto;shape-rendering:auto;text-rendering:auto;enable-background:accumulate"
         transform="matrix(0.94411441,-0.32961793,0.263665,0.96461431,0,0.52916667)" />
      <path
         inkscape:connector-curvature="0"
         transform="matrix(0.99642647,-0.08446467,0.01548564,0.99988009,76.444038,1.1815328)"
         style="color:#000000;clip-rule:nonzero;display:inline;overflow:visible;visibility:visible;opacity:1;isolation:auto;mix-blend-mode:normal;color-interpolation:sRGB;color-interpolation-filters:linearRGB;solid-color:#000000;solid-opacity:1;vector-effect:none;fill:#cccccc;fill-opacity:1;fill-rule:nonzero;stroke:none;stroke-width:0.79469824;stroke-linecap:round;stroke-linejoin:miter;stroke-miterlimit:4;stroke-dasharray:none;stroke-dashoffset:0;stroke-opacity:1;marker:none;paint-order:fill markers stroke;filter:url(#filter1193);color-rendering:auto;image-rendering:auto;shape-rendering:auto;text-rendering:auto;enable-background:accumulate"
         d="m -44.230469,253.63672 c -0.358342,0.94861 -0.245091,1.97929 -0.223287,2.96984 0.05371,1.39952 0.07983,2.80098 0.02089,4.20079 -0.0461,2.05312 -0.08259,4.10841 6.57e-4,6.16099 0.07754,1.53336 0.218239,3.07388 0.05578,4.60675 -0.08503,1.085 0.11807,2.16182 0.210413,3.23936 0.05049,0.27528 0.535308,0.26322 0.560547,-0.0215 0.04753,-0.98766 -0.165133,-1.96254 -0.187605,-2.9478 -0.09959,-1.8715 -0.213342,-3.74259 -0.282993,-5.61543 -0.03651,-2.03029 -0.0313,-4.06276 0.09404,-6.09017 0.066,-1.21458 0.08527,-2.43448 -0.02868,-3.64689 -0.05756,-0.89691 -0.09737,-1.79507 -0.106475,-2.69385 -0.0094,-0.0607 -0.01964,-0.19045 -0.113281,-0.16211 z"
         id="path1197" />
      <path
         id="path1199"
         d="m -44.300781,252.64844 c -0.179547,0.19891 -0.26804,0.47354 -0.389345,0.71282 -0.319682,0.72286 -0.447313,1.51814 -0.425062,2.30549 0.01278,1.04423 0.18189,2.07861 0.227868,3.12123 0.03814,0.69179 0.117071,1.38455 0.307791,2.05243 0.28205,1.17182 0.549074,2.36775 0.489133,3.58106 -0.02523,1.36967 0.0079,2.74279 -0.110086,4.10885 -0.201922,1.421 -0.539097,2.82854 -0.565905,4.26954 -0.03816,0.79067 -0.07632,1.58134 -0.114472,2.37202 0.232536,0.20256 0.432977,-0.23173 0.283203,-0.41016 -0.06745,-0.26816 -0.01995,-0.54854 -0.01292,-0.82108 0.141346,-1.5073 0.478016,-2.98663 0.727766,-4.47775 0.130862,-0.79619 0.201692,-1.60139 0.206396,-2.40834 0.03031,-1.20132 0.04168,-2.40337 0.04852,-3.60484 -0.07492,-1.55336 -0.644607,-3.05268 -0.573272,-4.61768 -0.008,-1.54544 -0.461744,-3.06562 -0.324219,-4.61523 0.05621,-0.49688 0.14472,-0.99079 0.279297,-1.47266 -5.18e-4,-0.0295 0.0064,-0.12727 -0.05469,-0.0957 z"
         style="color:#000000;clip-rule:nonzero;display:inline;overflow:visible;visibility:visible;opacity:1;isolation:auto;mix-blend-mode:normal;color-interpolation:sRGB;color-interpolation-filters:linearRGB;solid-color:#000000;solid-opacity:1;vector-effect:none;fill:#cccccc;fill-opacity:1;fill-rule:nonzero;stroke:none;stroke-width:0.79469824;stroke-linecap:round;stroke-linejoin:miter;stroke-miterlimit:4;stroke-dasharray:none;stroke-dashoffset:0;stroke-opacity:1;marker:none;paint-order:fill markers stroke;filter:url(#filter1193);color-rendering:auto;image-rendering:auto;shape-rendering:auto;text-rendering:auto;enable-background:accumulate"
         transform="matrix(-0.96303257,-0.26938496,-0.20226988,0.97932982,56.264533,-2.8499848)"
         inkscape:connector-curvature="0" />
    </g>
  </g>
</svg>
