<?xml version="1.0" encoding="UTF-8" standalone="no"?>
<!-- Created with Inkscape (http://www.inkscape.org/) -->

<svg
   xmlns:dc="http://purl.org/dc/elements/1.1/"
   xmlns:cc="http://creativecommons.org/ns#"
   xmlns:rdf="http://www.w3.org/1999/02/22-rdf-syntax-ns#"
   xmlns:svg="http://www.w3.org/2000/svg"
   xmlns="http://www.w3.org/2000/svg"
   xmlns:sodipodi="http://sodipodi.sourceforge.net/DTD/sodipodi-0.dtd"
   xmlns:inkscape="http://www.inkscape.org/namespaces/inkscape"
   width="210mm"
   height="297mm"
   viewBox="0 0 744.09448819 1052.3622047"
   id="svg2"
   version="1.1"
   inkscape:version="0.91 r13725"
   sodipodi:docname="finger.svg">
  <defs
     id="defs4" />
  <sodipodi:namedview
     id="base"
     pagecolor="#ffffff"
     bordercolor="#666666"
     borderopacity="1.0"
     inkscape:pageopacity="0.0"
     inkscape:pageshadow="2"
     inkscape:zoom="1.979899"
     inkscape:cx="332.74283"
     inkscape:cy="554.7426"
     inkscape:document-units="px"
     inkscape:current-layer="layer1"
     showgrid="false"
     inkscape:window-width="1920"
     inkscape:window-height="1005"
     inkscape:window-x="-9"
     inkscape:window-y="-9"
     inkscape:window-maximized="1" />
  <metadata
     id="metadata7">
    <rdf:RDF>
      <cc:Work
         rdf:about="">
        <dc:format>image/svg+xml</dc:format>
        <dc:type
           rdf:resource="http://purl.org/dc/dcmitype/StillImage" />
        <dc:title></dc:title>
      </cc:Work>
    </rdf:RDF>
  </metadata>
  <g
     inkscape:label="Calque 1"
     inkscape:groupmode="layer"
     id="layer1">
    <path
       inkscape:connector-curvature="0"
       id="path4149"
       d="m 228.2857,573.02162 c -10.37315,-1.27534 -19.30491,-4.15227 -29.36366,-9.45806 -4.70747,-2.4831 -10.60143,-4.79467 -13.09769,-5.13682 -4.1879,-0.57401 -4.53865,-0.45351 -4.53865,1.55929 0,1.19976 -1.10455,3.28592 -2.45455,4.63592 -2.36245,2.36246 -2.95857,2.45455 -15.88921,2.45455 -11.73667,0 -13.73305,-0.24157 -15.79546,-1.91128 l -2.36078,-1.91127 -0.27226,-62.14339 -0.27226,-62.14339 2.94534,-2.94534 2.94533,-2.94533 12.65385,0 c 12.6525,0 12.65416,3.1e-4 15.57692,2.92308 1.60769,1.60769 2.92308,3.85769 2.92308,5 0,1.70267 0.62392,2.07692 3.46249,2.07692 1.90436,0 5.9553,-0.93268 9.00208,-2.07263 11.53686,-4.31649 20.78636,-14.49393 30.16762,-33.19413 7.56814,-15.086 13.8437,-20.70492 23.14993,-20.72766 6.15411,-0.015 13.05158,5.6031 15.22707,12.40278 2.39427,7.48348 -0.72395,22.09285 -7.65003,35.84164 -1.31607,2.6125 -2.27277,4.84453 -2.12601,4.96006 0.14677,0.11553 23.47549,0.45303 51.84161,0.75 l 51.57476,0.53994 4.25107,2.81437 c 4.50351,2.9815 9.076,10.8769 9.08406,15.68563 0.0126,7.53584 -6.0076,16.85011 -12.70253,19.65287 -2.43503,1.0194 -9.942,1.34713 -30.85699,1.34713 -25.93332,0 -27.59423,0.108 -26.91192,1.75 3.53855,8.51558 4.23774,15.33176 2.38493,23.25 -0.57913,2.475 -1.40766,7.94893 -1.84118,12.16428 -0.8672,8.43221 -4.62662,17.6591 -9.81467,24.08855 -1.91743,2.37623 -3.65705,6.31876 -4.74249,10.74798 -2.29653,9.3712 -6.11359,14.47521 -13.27844,17.75539 -5.15112,2.35826 -6.94357,2.60497 -20.68065,2.84654 -8.27239,0.14546 -18.41571,-0.15046 -22.54071,-0.65762 z"
       style="fill:#ff6600"
       sodipodi:nodetypes="ssssssscccccssssssssscscssssssssssss" />
    <path
       style="fill:#000000"
       d="m 228.2857,573.02162 c -10.37315,-1.27534 -19.30491,-4.15227 -29.36366,-9.45806 -4.70747,-2.4831 -10.60143,-4.79467 -13.09769,-5.13682 -4.1879,-0.57401 -4.53865,-0.45351 -4.53865,1.55929 0,1.19976 -1.10455,3.28592 -2.45455,4.63592 -2.36245,2.36246 -2.95857,2.45455 -15.88921,2.45455 -11.73667,0 -13.73305,-0.24157 -15.79546,-1.91128 l -2.36078,-1.91127 -0.27226,-62.14339 -0.27226,-62.14339 2.94534,-2.94534 2.94533,-2.94533 12.65385,0 c 12.6525,0 12.65416,3.1e-4 15.57692,2.92308 1.60769,1.60769 2.92308,3.85769 2.92308,5 0,1.70267 0.62392,2.07692 3.46249,2.07692 1.90436,0 5.9553,-0.93268 9.00208,-2.07263 11.53686,-4.31649 20.78636,-14.49393 30.16762,-33.19413 7.56814,-15.086 13.8437,-20.70492 23.14993,-20.72766 6.15411,-0.015 13.05158,5.6031 15.22707,12.40278 2.39427,7.48348 -0.72395,22.09285 -7.65003,35.84164 -1.31607,2.6125 -2.27277,4.84453 -2.12601,4.96006 0.14677,0.11553 23.47549,0.45303 51.84161,0.75 l 51.57476,0.53994 4.25107,2.81437 c 4.50351,2.9815 9.076,10.8769 9.08406,15.68563 0.0126,7.53584 -6.0076,16.85011 -12.70253,19.65287 -2.43503,1.0194 -9.942,1.34713 -30.85699,1.34713 -25.93332,0 -27.59423,0.108 -26.91192,1.75 3.53855,8.51558 4.23774,15.33176 2.38493,23.25 -0.57913,2.475 -1.40766,7.94893 -1.84118,12.16428 -0.8672,8.43221 -4.62662,17.6591 -9.81467,24.08855 -1.91743,2.37623 -3.65705,6.31876 -4.74249,10.74798 -2.29653,9.3712 -6.11359,14.47521 -13.27844,17.75539 -5.15112,2.35826 -6.94357,2.60497 -20.68065,2.84654 -8.27239,0.14546 -18.41571,-0.15046 -22.54071,-0.65762 z m 40.5,-9.67039 c 4.78146,-2.4916 6.83213,-5.7642 8.58779,-13.70499 0.78428,-3.54727 2.6472,-7.76654 4.636,-10.5 6.20378,-8.52659 9.1655,-15.9089 10.26389,-25.58354 0.56112,-4.94241 1.28982,-11.0159 1.61932,-13.49664 1.13361,-8.53461 -3.8619,-18.98956 -9.07345,-18.98956 -2.90827,0 -4.78054,-2.23065 -4.36031,-5.19496 l 0.32676,-2.30504 36.67082,-0.5 36.67083,-0.5 2.49877,-2.34878 c 5.89552,-5.54163 5.93395,-12.94711 0.0938,-18.07483 l -3.50381,-3.07639 -48.80628,0 c -50.76611,0 -54.28349,-0.2535 -60.55754,-4.36441 l -2.33663,-1.53102 4.30904,-8.30228 c 9.83199,-18.94345 11.95874,-32.39691 5.93979,-37.57419 -2.23969,-1.9265 -3.5533,-2.31542 -6.30977,-1.8681 -4.99824,0.8111 -8.73242,4.88426 -13.87998,15.14 -12.60478,25.11309 -25.57805,37.05164 -43.29432,39.84126 l -6.99472,1.1014 0,49.13938 0,49.13938 5.22261,0.61854 c 3.37801,0.40007 9.11745,2.54599 16.25,6.0757 16.54969,8.19 23.81883,9.59573 47.52739,9.19099 12.44482,-0.21245 15.06695,-0.54297 18.5,-2.33192 z"
       id="path4147"
       inkscape:connector-curvature="0" />
  </g>
</svg>
