<?xml version="1.0" encoding="UTF-8" standalone="no"?>
<!-- Created with Inkscape (http://www.inkscape.org/) -->

<svg
   xmlns:dc="http://purl.org/dc/elements/1.1/"
   xmlns:cc="http://creativecommons.org/ns#"
   xmlns:rdf="http://www.w3.org/1999/02/22-rdf-syntax-ns#"
   xmlns:svg="http://www.w3.org/2000/svg"
   xmlns="http://www.w3.org/2000/svg"
   xmlns:sodipodi="http://sodipodi.sourceforge.net/DTD/sodipodi-0.dtd"
   xmlns:inkscape="http://www.inkscape.org/namespaces/inkscape"
   width="100"
   height="99.999992"
   id="svg2"
   version="1.1"
   inkscape:version="0.91 r13725"
   sodipodi:docname="diode.svg"
   inkscape:export-filename="C:\Users\Tristan\Google Drive\Programmation\Processing\tuyau_V3_P2D\data\diode-membrane.png"
   inkscape:export-xdpi="300"
   inkscape:export-ydpi="300">
  <defs
     id="defs4" />
  <sodipodi:namedview
     id="base"
     pagecolor="#ffffff"
     bordercolor="#666666"
     borderopacity="1.0"
     inkscape:pageopacity="0.0"
     inkscape:pageshadow="2"
     inkscape:zoom="4.5499999"
     inkscape:cx="49.280207"
     inkscape:cy="49.54282"
     inkscape:document-units="px"
     inkscape:current-layer="svg2"
     showgrid="false"
     inkscape:window-width="1209"
     inkscape:window-height="753"
     inkscape:window-x="1874"
     inkscape:window-y="158"
     inkscape:window-maximized="0"
     fit-margin-top="0"
     fit-margin-left="0"
     fit-margin-right="0"
     fit-margin-bottom="0" />
  <metadata
     id="metadata7">
    <rdf:RDF>
      <cc:Work
         rdf:about="">
        <dc:format>image/svg+xml</dc:format>
        <dc:type
           rdf:resource="http://purl.org/dc/dcmitype/StillImage" />
        <dc:title />
      </cc:Work>
    </rdf:RDF>
  </metadata>
  <rect
     style="color:#000000;clip-rule:nonzero;display:inline;overflow:visible;visibility:visible;opacity:1;isolation:auto;mix-blend-mode:normal;color-interpolation:sRGB;color-interpolation-filters:linearRGB;solid-color:#000000;solid-opacity:1;fill:#c37667;fill-opacity:1;fill-rule:nonzero;stroke:none;stroke-width:1;stroke-linecap:butt;stroke-linejoin:miter;stroke-miterlimit:4;stroke-dasharray:none;stroke-dashoffset:0;stroke-opacity:0.52036252;marker:none;color-rendering:auto;image-rendering:auto;shape-rendering:auto;text-rendering:auto;enable-background:accumulate"
     id="rect4154"
     width="100"
     height="100"
     x="0.24322"
     y="-7.6293945e-006" />
  <path
     style="color:#000000;clip-rule:nonzero;display:inline;overflow:visible;visibility:visible;opacity:1;isolation:auto;mix-blend-mode:normal;color-interpolation:sRGB;color-interpolation-filters:linearRGB;solid-color:#000000;solid-opacity:1;fill:#ffffff;fill-opacity:1;fill-rule:nonzero;stroke:none;stroke-width:1;stroke-linecap:butt;stroke-linejoin:miter;stroke-miterlimit:4;stroke-dasharray:none;stroke-dashoffset:0;stroke-opacity:0.52036252;marker:none;color-rendering:auto;image-rendering:auto;shape-rendering:auto;text-rendering:auto;enable-background:accumulate"
     d="M 60.058544,44.590865 27.49285,28.847756 0.046409,28.626275 l 0,44.602129 24.153987,-0.05952 36.842865,-17.084144 z"
     id="diode-water2"
     inkscape:connector-curvature="0"
     sodipodi:nodetypes="ccccccc"
     inkscape:label="#water1"
     inkscape:export-filename=".\diode-water2.png"
     inkscape:export-xdpi="143.29262"
     inkscape:export-ydpi="143.29262" />
  <path
     sodipodi:nodetypes="ccccc"
     inkscape:connector-curvature="0"
     id="water2"
     d="m 58.743169,29.562583 41.500051,-0.936308 0,44.602129 -41.20991,-0.330475 z"
     style="color:#000000;clip-rule:nonzero;display:inline;overflow:visible;visibility:visible;opacity:1;isolation:auto;mix-blend-mode:normal;color-interpolation:sRGB;color-interpolation-filters:linearRGB;solid-color:#000000;solid-opacity:1;fill:#ffffff;fill-opacity:1;fill-rule:nonzero;stroke:none;stroke-width:1;stroke-linecap:butt;stroke-linejoin:miter;stroke-miterlimit:4;stroke-dasharray:none;stroke-dashoffset:0;stroke-opacity:0.52036252;marker:none;color-rendering:auto;image-rendering:auto;shape-rendering:auto;text-rendering:auto;enable-background:accumulate"
     inkscape:export-filename=".\diode-water0.png"
     inkscape:export-xdpi="143.29262"
     inkscape:export-ydpi="143.29262" />
  <path
     sodipodi:nodetypes="sssssss"
     inkscape:connector-curvature="0"
     id="diode-membrane"
     d="m 64.035767,37.521455 c -0.973385,-1.439432 -4.312852,-1.766185 -4.313004,0.279184 -2.69e-4,3.610279 -0.426238,9.889912 -0.310514,12.504972 0.209859,4.742254 -0.7689,14.423253 1.44989,14.404517 0.695864,-0.0059 2.81823,0.435975 3.588215,-0.956562 1.685142,-3.047624 1.120956,-9.884014 0.999768,-14.14795 -0.176562,-6.212239 0.164995,-9.748633 -1.414355,-12.084161 z"
     style="color:#000000;clip-rule:nonzero;display:inline;overflow:visible;visibility:visible;opacity:1;isolation:auto;mix-blend-mode:normal;color-interpolation:sRGB;color-interpolation-filters:linearRGB;solid-color:#000000;solid-opacity:1;fill:#93a7ac;fill-opacity:1;fill-rule:nonzero;stroke:#000000;stroke-width:2;stroke-linecap:butt;stroke-linejoin:miter;stroke-miterlimit:4;stroke-dasharray:none;stroke-dashoffset:0;stroke-opacity:1;marker:none;color-rendering:auto;image-rendering:auto;shape-rendering:auto;text-rendering:auto;enable-background:accumulate"
     inkscape:label="#membrane"
     inkscape:export-filename=".\diode-membrane.png"
     inkscape:export-xdpi="143.29262"
     inkscape:export-ydpi="143.29262" />
  <g
     id="diode-tube"
     transform="translate(50.24322,50)"
     inkscape:label="#tuyau"
     inkscape:export-filename="diode-tube.png"
     inkscape:export-xdpi="143.29262"
     inkscape:export-ydpi="143.29262">
    <path
       id="path5162"
       style="color:#000000;font-style:normal;font-variant:normal;font-weight:normal;font-stretch:normal;font-size:medium;line-height:normal;font-family:Sans;-inkscape-font-specification:Sans;text-indent:0;text-align:start;text-decoration:none;text-decoration-line:none;letter-spacing:normal;word-spacing:normal;text-transform:none;direction:ltr;block-progression:tb;writing-mode:lr-tb;baseline-shift:baseline;text-anchor:start;display:inline;overflow:visible;visibility:visible;fill:#93a7ac;fill-opacity:1;stroke:#000000;stroke-width:2;stroke-miterlimit:4;stroke-dasharray:none;marker:none;enable-background:accumulate"
       d="m 3.6475973,-22.880509 c -0.7797045,3.16e-4 1.6754293,9.860406 -1.4637714,10.496017 -2.94327368,0.595939 -22.0808569,-7.950132 -25.2596889,-11.015401 -8.729314,-0.08972 -11.523708,0.180335 -15.231646,-0.08984 -1.614764,-0.117658 -5.256461,-0.228403 -5.256461,-0.228403 l -0.35231,-5.04423 -5.32694,-0.21813 0,11.59724 c 5.262032,0.575464 20.278538,0.06692 25.991443,1.725016 14.961888,4.342493 26.3856327,12.6195322 31.2609679,12.4942517 0.8313793,-13.5382117 0.059131,-9.9380177 0.2152495,-14.8097387 6.9561906,-0.300997 27.5842606,-1.310459 29.6922196,-0.140352 6.353718,0.0512 11.33379,0.0958 11.33379,0.0958 l 0,-10.83812 -4.03634,0.21813 -0.1006,4.41193 -3.97426,0.32824 c -27.837327,0.481303 -31.3144956,1.171395 -37.4916527,1.01759 z"
       inkscape:connector-curvature="0"
       sodipodi:nodetypes="cscsccccsccccccccc" />
    <path
       sodipodi:nodetypes="cscsccccsccccccccc"
       inkscape:connector-curvature="0"
       d="M 3.9772677,24.183793 C 3.0538697,24.183419 5.0149175,12.522672 3.0367727,12.028512 -1.6298967,10.86273 -19.41835,20.451066 -26.041749,24.190369 c -5.310826,0.09422 -10.034974,0.220324 -12.26576,0.382868 -1.614764,0.117658 -5.256461,0.228403 -5.256461,0.228403 l -0.35231,5.04423 -5.32694,0.21813 0,-11.59724 c 5.381477,-0.588527 17.691147,0.305882 23.583069,-1.216758 5.968519,-1.542434 28.8362629,-13.1267044 33.6693419,-13.00251 0.8313793,13.538212 0.4476516,9.938018 0.6037697,14.809739 6.9561904,0.300997 27.1957404,1.310459 29.3036994,0.140352 6.353718,-0.0512 11.33379,-0.0958 11.33379,-0.0958 l 0,10.83812 -4.03634,-0.21813 -0.1006,-4.41193 -3.97426,-0.32824 C 13.301923,24.5003 10.154425,24.029988 3.9772677,24.183793 Z"
       style="color:#000000;font-style:normal;font-variant:normal;font-weight:normal;font-stretch:normal;font-size:medium;line-height:normal;font-family:Sans;-inkscape-font-specification:Sans;text-indent:0;text-align:start;text-decoration:none;text-decoration-line:none;letter-spacing:normal;word-spacing:normal;text-transform:none;direction:ltr;block-progression:tb;writing-mode:lr-tb;baseline-shift:baseline;text-anchor:start;display:inline;overflow:visible;visibility:visible;fill:#93a7ac;fill-opacity:1;stroke:#000000;stroke-width:2;stroke-miterlimit:4;stroke-dasharray:none;marker:none;enable-background:accumulate"
       id="path4139" />
  </g>
</svg>
